<?xml version="1.0" encoding="UTF-8" standalone="no"?>
<!-- Created with Inkscape (http://www.inkscape.org/) -->

<svg
   xmlns:dc="http://purl.org/dc/elements/1.1/"
   xmlns:cc="http://creativecommons.org/ns#"
   xmlns:rdf="http://www.w3.org/1999/02/22-rdf-syntax-ns#"
   xmlns:svg="http://www.w3.org/2000/svg"
   xmlns="http://www.w3.org/2000/svg"
   xmlns:sodipodi="http://sodipodi.sourceforge.net/DTD/sodipodi-0.dtd"
   xmlns:inkscape="http://www.inkscape.org/namespaces/inkscape"
   width="210mm"
   height="297mm"
   viewBox="0 0 210 297"
   version="1.1"
   id="svg8"
   inkscape:version="0.92.1 r15371"
   sodipodi:docname="character.svg">
  <defs
     id="defs2" />
  <sodipodi:namedview
     id="base"
     pagecolor="#ffffff"
     bordercolor="#666666"
     borderopacity="1.0"
     inkscape:pageopacity="0.0"
     inkscape:pageshadow="2"
     inkscape:zoom="1.28"
     inkscape:cx="2111.5182"
     inkscape:cy="1967.2703"
     inkscape:document-units="mm"
     inkscape:current-layer="layer1"
     showgrid="false"
     showborder="false"
     inkscape:snap-smooth-nodes="false"
     inkscape:window-width="1920"
     inkscape:window-height="1017"
     inkscape:window-x="-8"
     inkscape:window-y="-8"
     inkscape:window-maximized="1"
     showguides="false"
     inkscape:object-nodes="false"
     inkscape:snap-nodes="false"
     inkscape:snap-others="false" />
  <metadata
     id="metadata5">
    <rdf:RDF>
      <cc:Work
         rdf:about="">
        <dc:format>image/svg+xml</dc:format>
        <dc:type
           rdf:resource="http://purl.org/dc/dcmitype/StillImage" />
        <dc:title />
      </cc:Work>
    </rdf:RDF>
  </metadata>
  <g
     inkscape:label="Layer 1"
     inkscape:groupmode="layer"
     id="layer1">
    <path
       style="fill:#bb3a01;fill-opacity:1;stroke:#000000;stroke-width:0;stroke-linecap:butt;stroke-linejoin:miter;stroke-miterlimit:4;stroke-dasharray:none;stroke-opacity:1"
       d="m 595.99746,74.005023 c 4.10323,-18.145363 26.39005,-29.919514 44.64843,-33.486328 20.69991,-4.043771 41.4388,6.703306 57.38466,20.507938 23.20185,20.086283 27.24277,51.170257 28.65865,81.826087 1.10789,23.98751 -6.43482,43.55213 -10.80242,67.16467 -2.20922,11.94369 -5.39541,24.69883 -2.06706,36.38021 5.259,18.45727 14.57645,33.32723 28.10338,44.49798 8.56025,7.06918 31.01446,12.13939 31.01446,12.13939 0,0 -22.08935,7.66044 -28.83545,8.06152 -8.09625,0.48136 -14.57275,-6.40787 -14.57275,-6.40787 3.0324,9.69596 1.45895,9.42353 0.82682,11.57552 0.0205,-0.0308 -5.25521,-8.06325 -10.86661,-11.3153 -8.12351,-4.70793 -18.3095,-5.73928 -25.5136,-11.00892 -18.14086,-13.26963 -33.29049,-41.80531 -22.71255,-46.7986 -5.52357,3.33646 0.93628,35.4316 2.22613,40.18475 0,0 -15.06974,-25.81986 -17.54313,-40.24277 -2.93431,-17.11072 3.30901,-40.06139 3.7164,-51.94872 0.57909,-16.89732 4.97962,-37.07019 -5.37435,-50.4362 -5.76829,-7.44632 -19.39889,-3.68608 -26.45833,-9.92187 -17.13898,-15.13932 -36.87649,-38.466697 -31.83268,-60.771487 z"
       id="path6071"
       inkscape:connector-curvature="0"
       sodipodi:nodetypes="ssssssacsccssccassss" />
    <path
       sodipodi:nodetypes="ssssccssssscsssssccccsssssssssssss"
       inkscape:connector-curvature="0"
       id="path6001"
       d="m 376.86096,180.49219 c 1.26774,6.79006 -0.11477,21.45661 0.82013,27.12059 0.2383,1.44372 6.00004,-14.60582 4.75493,-11.84053 -0.51207,1.13727 -0.40519,10.10406 -0.2289,11.28442 6.4139,42.9454 0.43363,54.2378 -17.40501,73.26053 -13.44132,11.55361 -25.4305,61.32944 -16.70177,82.97476 3.53844,-6.51088 5.24467,-1.87591 6.95248,-2.20362 0.87877,-0.16863 8.13048,-12.76874 7.4529,-16.49544 -0.18648,-1.02565 -2.06583,15.27426 -2.06583,15.27426 12.65181,-1.31444 16.93508,9.74763 19.47853,16.49503 0.62567,1.65981 9.3493,-5.40283 6.53216,-3.61645 -6.1756,3.91601 -3.0486,13.86175 -3.57219,14.76751 0.038,-2.19456 55.87392,-35.98017 81.48214,2.30821 4.90219,7.32956 22.9127,-28.15085 33.14584,-31.84938 23.29359,-8.41892 36.99655,9.23354 51.94688,19.58274 2.0432,1.41438 2.26556,-10.42681 2.41717,-9.74825 0.15785,0.70649 0.30113,13.51285 0.69642,14.10169 6.99561,10.42086 10.49789,20.22215 10.15162,21.4857 -3.74618,-2.89312 23.77688,-79.17485 54.32072,-60.6066 12.19638,-14.55651 22.68174,-12.48242 27.58956,-13.44206 15.76374,-1.09683 33.18794,23.69939 33.3555,27.14798 0,0 4.03183,-23.5395 -0.0902,-33.35812 -9.66753,-23.0279 -27.31341,-50.85393 -32.75239,-76.81157 -7.81955,-37.31891 12.16279,-78.30262 -0.1538,-114.38791 -8.56071,-25.08129 -19.74321,-58.316106 -45.53267,-61.924647 -0.64465,-0.0902 6.06993,-18.897834 3.91142,-17.478001 -1.83909,1.209724 -8.66981,13.307827 -9.80135,12.597301 -21.30284,-13.376686 -49.34784,-18.919523 -73.96388,-19.446758 -23.9948,-0.513929 -50.02659,4.470898 -70.33569,16.633599 -10.07924,6.036252 -16.88699,10.817931 -25.16598,17.474287 -1.12075,0.901092 -29.62694,16.376096 -28.17179,16.459974 19.34861,1.115303 18.37588,-6.201508 17.56316,-5.345206 -10.08798,10.628981 -15.76392,20.425471 -26.98248,39.089951 -8.02666,13.35406 -12.11942,37.25698 -9.64763,50.49601 z"
       style="fill:#bc3700;fill-opacity:1;stroke:#000000;stroke-width:0;stroke-linecap:butt;stroke-linejoin:miter;stroke-miterlimit:4;stroke-dasharray:none;stroke-opacity:1" />
    <path
       sodipodi:nodetypes="cccccc"
       inkscape:connector-curvature="0"
       id="path6003"
       d="m 596.75761,127.10964 c -18.09552,62.91279 -10.34572,80.49931 -0.54073,110.49924 -48.82166,52.0034 -59.19732,44.12687 -89.22267,57.29591 -25.92468,-15.69732 -51.98742,-14.37271 -78.40779,-54.9573 -6.98482,-23.87527 -12.26957,-52.36496 -4.86669,-77.75873 75.6589,-25.98096 87.10587,-47.82356 173.03788,-35.07912 z"
       style="fill:#fff4e3;fill-opacity:1;stroke:#000000;stroke-width:0;stroke-linecap:butt;stroke-linejoin:miter;stroke-miterlimit:4;stroke-dasharray:none;stroke-opacity:1" />
    <path
       sodipodi:nodetypes="ccccccccccccccc"
       inkscape:connector-curvature="0"
       id="path6005"
       d="m 434.5346,145.23385 c -12.32447,5.16231 -22.42169,39.04008 -5.09078,50.5 -4.61891,-14.12294 13.70001,-51.998 21.85382,-45.53046 -13.13293,2.74538 2.31391,11.9015 -0.16337,21.84744 4.93507,-3.17636 3.97933,0.79906 17.24391,-11.6454 8.57859,-8.94499 13.97875,-9.46447 21.85298,-6.98645 l 8.6519,-14.03165 c -7.96214,3.07838 -31.83987,13.91387 -21.85103,31.24951 3.94337,-22.93991 49.99219,-31.42085 49.02737,-38.8439 -7.73822,5.58299 -13.2361,20.53106 -10.95404,26.88791 12.23309,-12.69385 35.87644,-14.46727 40.35099,-16.9696 29.13249,9.51758 14.824,33.35011 13.80021,49.93004 25.82419,-23.75506 23.11949,-1.86268 31.83264,-33.50963 28.53471,-8.15794 -10.85798,-27.89442 2.69809,-53.82346 z"
       style="fill:#bc3700;fill-opacity:1;stroke:#000000;stroke-width:0;stroke-linecap:butt;stroke-linejoin:miter;stroke-miterlimit:4;stroke-dasharray:none;stroke-opacity:1" />
    <path
       sodipodi:nodetypes="ccccc"
       inkscape:connector-curvature="0"
       id="path6007"
       d="m 581.61681,169.20459 c 2.75711,37.9309 -1.0872,41.79151 -11.35562,54.37264 6.89018,2.96662 27.40883,-12.48902 19.95316,9.51351 30.36764,26.15604 12.67178,-3.86166 21.68409,-9.51351 z"
       style="fill:#bc3700;fill-opacity:1;stroke:#000000;stroke-width:0;stroke-linecap:butt;stroke-linejoin:miter;stroke-miterlimit:4;stroke-dasharray:none;stroke-opacity:1" />
    <path
       style="fill:#2f95e4;fill-opacity:1;stroke:#000000;stroke-width:0;stroke-linecap:butt;stroke-linejoin:miter;stroke-miterlimit:4;stroke-dasharray:none;stroke-opacity:1"
       d="m 799.23848,201.65462 c -4.93944,23.77806 0.4592,33.52831 1.13206,36.64845 0.54405,2.52285 2.34737,-24.36012 3.04805,-22.05018 16.80258,55.39314 -20.8534,66.54163 14.46194,110.17477 1.18836,-0.58626 4.71782,-1.49778 3.48281,-1.64643 -1.04718,-0.12605 -3.63783,-14.21736 -2.35356,-14.57651 1.00354,-0.28066 -3.28486,-5.36247 -2.89134,-4.45945 1.63958,3.76241 6.54894,17.61049 7.97443,17.27344 0.53919,-0.12749 1.42464,-0.0759 1.15392,-0.54094 -0.0874,-0.15006 -3.01109,-11.96598 -2.87081,-10.69519 0.25731,2.33092 3.78829,10.18388 4.34462,10.07177 29.71865,-5.98877 40.6131,11.35028 39.48528,13.30132 14.77374,-8.34232 37.2704,-5.77155 47.93615,6.95032 0.59872,0.71414 5.67942,-8.38562 5.81146,-10.20749 0.038,-0.5247 -2.74057,10.31371 -2.56559,10.34039 3.16004,0.48183 5.92876,0.0411 9.07332,-0.96061 42.44505,-15.34079 38.02265,0.28407 47.81865,4.64239 -2.877,-2.22186 2.0938,-26.83325 24.4266,-34.53929 1.1523,-0.39761 10.77873,18.10161 9.07883,27.55406 7.697,1.69513 19.2879,-1.39678 17.6685,0.53236 -1.3511,1.60943 1.3088,-22.09156 4.9738,-19.87849 -5.1206,-7.26946 -2.4015,21.01607 -0.8401,19.82614 17.3193,-13.19894 22.217,-23.79572 29.1975,-27.03931 -0.8739,-17.14986 -5.4901,-34.17108 3.6845,-49.17293 0.2764,-0.45188 -0.2072,-16.11227 0.092,-16.56177 0.4824,-0.72377 1.5477,15.08074 2.0932,14.36325 0.4957,-0.652 2.46,-3.98033 3.0105,-4.62707 -7.8196,-37.31891 10.2432,-74.65712 -2.5487,-108.90286 -2.8125,-7.52946 -2.132,-5.74925 -2.8933,-10.45446 -0.3887,-2.40213 13.0514,6.86522 13.0514,6.86522 -8.3324,-15.39238 -25.2447,-27.92773 -28.7501,-31.41476 -10.133,-10.07983 -20.6516,-19.246498 -32.3497,-26.836791 -21.05613,-13.662259 -47.48503,-19.855074 -72.58443,-20.041115 -23.11067,-0.171301 -46.79026,5.297722 -67.09936,17.460422 -25.80664,15.45507 -44.49158,32.044794 -58.1594,54.946354 -11.25916,18.86565 -13.89364,46.67148 -17.09313,63.65499 z"
       id="path4527"
       inkscape:connector-curvature="0"
       sodipodi:nodetypes="csscssssssscsssccscscscssscsssssasac" />
    <path
       style="fill:#fff4e3;fill-opacity:1;stroke:#000000;stroke-width:0;stroke-linecap:butt;stroke-linejoin:miter;stroke-miterlimit:4;stroke-dasharray:none;stroke-opacity:1"
       d="m 1019.5736,137.89449 c -18.0955,62.91279 -11.9535,78.45303 -2.1485,108.45296 -53.50883,46.64658 -58.35383,43.19071 -89.07652,55.24963 -14.67013,-6.34289 -48.37311,-12.82547 -74.79348,-53.41006 -6.60968,-27.41584 -14.37645,-49.86544 -7.01937,-75.21341 56.8322,-12.42574 87.10587,-47.82357 173.03787,-35.07912 z"
       id="path4529"
       inkscape:connector-curvature="0"
       sodipodi:nodetypes="cccccc" />
    <path
       style="fill:#2f95e4;fill-opacity:1;stroke:#000000;stroke-width:0;stroke-linecap:butt;stroke-linejoin:miter;stroke-miterlimit:4;stroke-dasharray:none;stroke-opacity:1"
       d="m 857.3506,156.0187 c -12.32447,5.16231 -38.39123,30.51751 -15.78932,62.85471 7.6504,-39.96387 27.52786,-89.85568 30.65224,-56.13121 -13.13293,2.74538 6.9012,10.76766 4.42392,20.7136 3.36326,-5.06257 6.97652,-9.63676 10.97482,-13.17549 1.68187,-1.48856 3.35824,2.02481 6.21637,2.69692 1.37766,-7.482 6.70406,-10.67486 3.69929,-9.87949 0.44943,0.86323 -1.01636,1.48121 -1.55915,9.42847 2.00408,-0.0428 6.3099,0.58593 6.3099,0.58593 -0.41975,-3.69678 1.14508,-10.51984 4.90772,-9.34461 l 14.51274,-13.59532 c -7.96214,3.07838 -21.95776,5.17168 -11.96892,22.50732 3.94337,-22.93991 40.11016,-22.67866 39.14526,-30.10171 -7.7382,5.58299 -3.7276,8.74883 -1.4455,15.10568 12.2331,-12.69385 28.6313,-1.4638 32.8135,-0.45822 11.9007,3.88796 10.2978,5.78146 13.1661,16.07105 1.4439,5.17973 2.6407,14.42204 3.0086,15.11234 0.774,1.45221 2.0454,-4.98291 2.1349,-4.252 1.72723,14.10441 -1.386,25.94921 -1.9329,34.80596 25.82423,-23.75506 18.57203,-18.39914 27.28513,-50.04609 28.5347,-8.15794 -10.8579,-27.89442 2.6981,-53.82346 z"
       id="path4531"
       inkscape:connector-curvature="0"
       sodipodi:nodetypes="ccccsccccccccccssscccc" />
    <path
       style="fill:#2f95e4;fill-opacity:1;stroke:#000000;stroke-width:0;stroke-linecap:butt;stroke-linejoin:miter;stroke-miterlimit:4;stroke-dasharray:none;stroke-opacity:1"
       d="m 1009.187,130.79348 c 3.3773,78.65193 -3.7743,91.60759 -14.04273,104.18872 6.89023,2.96662 17.12733,-1.14707 6.77773,14.44758 16.1094,5.16614 23.807,-9.14796 32.7925,-15.0677 z"
       id="path4533"
       inkscape:connector-curvature="0"
       sodipodi:nodetypes="ccccc" />
    <path
       style="fill:#1565a2;fill-opacity:1;stroke:#000000;stroke-width:0;stroke-linecap:butt;stroke-linejoin:miter;stroke-miterlimit:4;stroke-dasharray:none;stroke-opacity:1"
       d="m 911.74735,99.247154 c 0,0 45.26662,-9.025028 72.79262,4.752446 20.48313,10.2523 31.21713,22.95875 41.10943,40.45378 5.9302,10.48786 6.7516,22.57426 6.7516,22.57426 0.03,-0.0789 -26.8228,-42.79985 -47.16563,-50.50461 -21.2306,-8.04098 -48.9423,-13.64615 -79.03076,-6.65865 -16.71305,3.88131 -41.37094,20.75685 -60.4161,29.53636 28.14885,-28.84387 63.70181,-40.169339 65.95884,-40.153586 z"
       id="path4548"
       inkscape:connector-curvature="0"
       sodipodi:nodetypes="csscsscc" />
    <path
       sodipodi:nodetypes="csscssssssscsssccssscssssscasssssscc"
       inkscape:connector-curvature="0"
       id="path4550"
       d="m 1289.2221,185.80877 c 0.8174,23.97363 -3.8483,34.37487 -3.1754,37.49501 0.5441,2.52285 6.2029,-18.90006 6.1759,-16.48634 -0.5771,51.46127 -20.8432,74.45517 14.4723,118.08835 1.1884,-0.58626 4.7178,-1.49778 3.4828,-1.64643 -1.0472,-0.12605 -3.6378,-14.21736 -2.3536,-14.57651 1.0036,-0.28066 -3.2848,-5.36247 -2.8913,-4.45945 1.6396,3.76241 6.5489,17.61049 7.9744,17.27344 0.5392,-0.12749 1.4247,-0.0759 1.154,-0.54094 -0.087,-0.15006 -3.0111,-11.96598 -2.8709,-10.69519 0.2574,2.33092 3.7883,10.18388 4.3447,10.07177 29.7186,-5.98877 40.6131,11.35028 39.4852,13.30132 14.7738,-8.34232 37.2704,-5.77155 47.9362,6.95032 0.5987,0.71414 5.6794,-8.38562 5.8115,-10.20749 0.038,-0.5247 -3.6176,10.45987 -3.4426,10.48655 3.16,0.48183 6.8057,-0.10505 9.9503,-1.10677 42.445,-15.34079 38.0226,0.28407 47.8186,4.64239 -2.877,-2.22186 2.0938,-26.83325 24.4266,-34.53929 1.1523,-0.39761 3.3244,26.28674 9.0788,27.55406 7.697,1.69513 19.2879,-1.39678 17.6685,0.53236 -1.3511,1.60943 1.3088,-22.09156 4.9738,-19.87849 -5.1206,-7.26946 -2.4015,21.01607 -0.8401,19.82614 17.3193,-13.19894 30.2785,-13.25373 29.5076,-28.3829 -0.8739,-17.14986 -4.87,-33.2409 4.3046,-48.24275 0.2764,-0.45188 -0.9307,-20.24639 -0.6311,-20.69589 0.4824,-0.72377 2.2712,19.21486 2.8167,18.49737 0.4957,-0.652 1.8221,-2.8361 2.3726,-3.48284 -7.8196,-37.31891 9.9509,-75.38796 -2.841,-109.63368 -9.3452,-25.01852 -28.3749,-47.557867 -50.9417,-61.840789 -2.6292,-1.664041 -2.6331,-4.251622 -5.7518,-4.184908 -1.9402,0.04151 4.1858,-2.445233 3.1128,-2.236939 -2.0438,0.39675 -8.6086,0.317094 -8.6086,0.317094 -20.4877,-3.470643 -40.6488,-12.007908 -61.3368,-12.182406 -22.9702,-0.193748 -46.7902,3.543766 -67.0993,15.706466 -25.8067,15.45507 -34.7883,19.783152 -58.1594,54.946352 -6.4702,16.5194 -14.4926,29.42926 -15.9243,49.33101 z"
       style="fill:#2f95e4;fill-opacity:1;stroke:#000000;stroke-width:0;stroke-linecap:butt;stroke-linejoin:miter;stroke-miterlimit:4;stroke-dasharray:none;stroke-opacity:1" />
    <path
       sodipodi:nodetypes="cccccc"
       inkscape:connector-curvature="0"
       id="path4552"
       d="m 1508.3879,136.37262 c -18.0955,62.91279 -11.9535,78.45303 -2.1485,108.45296 -53.5088,46.64658 -59.2308,41.87524 -89.0765,55.24963 -25.9246,-15.69732 -48.3731,-12.82547 -74.7934,-53.41006 -6.6097,-27.41584 -14.3765,-49.86544 -7.0194,-75.21341 56.8322,-12.42574 87.1059,-47.82357 173.0378,-35.07912 z"
       style="fill:#fff4e3;fill-opacity:1;stroke:#000000;stroke-width:0;stroke-linecap:butt;stroke-linejoin:miter;stroke-miterlimit:4;stroke-dasharray:none;stroke-opacity:1" />
    <path
       sodipodi:nodetypes="ccccsccccccccccssscccc"
       inkscape:connector-curvature="0"
       id="path4554"
       d="m 1346.165,154.49683 c -12.3245,5.16231 -38.3913,30.51751 -15.7894,62.85471 7.6504,-39.96387 29.428,-91.60963 32.5524,-57.88517 -13.1329,2.74538 5.0011,12.52162 2.5238,22.46756 3.3633,-5.06257 6.9765,-9.63676 10.9748,-13.17549 1.6819,-1.48856 5.178,4.32581 8.0361,4.99792 1.3777,-7.482 5.7873,-10.79165 2.7825,-9.99628 0.3699,2.0034 -1.4427,7.97239 -1.5343,9.45329 2.0041,-0.0428 3.9936,3.41952 3.9936,3.41952 -0.4198,-3.69678 2.6067,-16.36637 6.3693,-15.19114 l 14.4397,-12.79142 c -7.9621,3.07838 -20.0576,5.02552 -10.0688,22.36116 3.9434,-22.93991 38.21,-22.5325 37.2451,-29.95555 -7.7382,5.58299 -3.7276,8.74883 -1.4455,15.10568 12.2331,-12.69385 26.3679,-2.68504 30.8425,-5.18737 11.9007,3.88796 14.0914,5.40483 16.3774,15.83927 0,0 1.4004,19.38297 1.7683,20.07327 0.7738,1.4523 2.0454,-4.98291 2.1349,-4.252 1.7272,14.10441 -1.386,25.94921 -1.9329,34.80596 25.8242,-23.75506 18.572,-18.39914 27.2851,-50.04609 28.5347,-8.15794 -10.8579,-27.89442 2.6981,-53.82346 z"
       style="fill:#2f95e4;fill-opacity:1;stroke:#000000;stroke-width:0;stroke-linecap:butt;stroke-linejoin:miter;stroke-miterlimit:4;stroke-dasharray:none;stroke-opacity:1" />
    <path
       sodipodi:nodetypes="ccccc"
       inkscape:connector-curvature="0"
       id="path4556"
       d="m 1498.0013,129.27161 c 3.3773,78.65193 -5.8414,90.98747 -16.1098,103.5686 6.8902,2.96662 27.4089,-12.48902 19.9532,9.51351 30.3676,26.15604 12.6718,-3.86166 21.6841,-9.51351 z"
       style="fill:#2f95e4;fill-opacity:1;stroke:#000000;stroke-width:0;stroke-linecap:butt;stroke-linejoin:miter;stroke-miterlimit:4;stroke-dasharray:none;stroke-opacity:1" />
    <path
       sodipodi:nodetypes="csscsscc"
       inkscape:connector-curvature="0"
       id="path4558"
       d="m 1401.136,94.060824 c 0,0 45.1057,-7.220917 72.6317,6.556566 20.4831,10.25229 28.555,19.9187 38.4473,37.41373 5.9302,10.48786 10.5861,29.36439 10.5861,29.36439 0.026,-0.0521 -29.2382,-44.67862 -50.2987,-52.66159 -20.6056,-7.81053 -42.141,-13.89119 -67.7303,-11.00378 -17.0496,1.92383 -44.6323,16.62452 -63.6775,25.40403 25.3661,-24.96002 60.0414,-35.073346 60.0414,-35.073346 z"
       style="fill:#1565a2;fill-opacity:1;stroke:#000000;stroke-width:0;stroke-linecap:butt;stroke-linejoin:miter;stroke-miterlimit:4;stroke-dasharray:none;stroke-opacity:1" />
    <path
       style="fill:#2f95e4;fill-opacity:1;stroke:#000000;stroke-width:0;stroke-linecap:butt;stroke-linejoin:miter;stroke-miterlimit:4;stroke-dasharray:none;stroke-opacity:1"
       d="m 1310.4976,130.37415 c -9.6356,-28.29101 -12.8653,-40.758701 -13.9224,-70.10764 -0.03,-0.83241 -0.016,-2.541545 0,-4.363604 0.026,-2.310218 0.062,-4.801975 0.033,-5.918414 0.9049,0.786487 1.8523,1.536849 2.8379,2.255216 0.4516,0.329124 0.6699,0.434278 1.1956,0.638721 0.3414,0.132772 0.242,-3.360652 1.7322,-4.393812 0,0 3.807,7.942594 5.064,8.582304 15.6293,7.954359 36.3001,11.852613 50.9075,21.987147 0.5445,0.37777 -0.26,-1.001881 0.2921,-5.125219 0.2962,-2.211852 0.9525,4.563406 2.8746,7.504483 0,0 4.3078,3.855824 6.1313,6.11505 z"
       id="path4560"
       inkscape:connector-curvature="0"
       sodipodi:nodetypes="csscssssssscc" />
    <path
       style="fill:#2f95e4;fill-opacity:1;stroke:#000000;stroke-width:0;stroke-linecap:butt;stroke-linejoin:miter;stroke-miterlimit:4;stroke-dasharray:none;stroke-opacity:1"
       d="m 1498.7556,81.84803 c -21.6832,0.541349 25.8044,-12.016122 88.4762,2.161283 -2.1287,2.69359 -2.7747,2.021675 -4.1114,4.720015 0,0 3.0758,1.012214 6.0414,2.740256 0,0 -10.6234,2.941049 -12.2699,4.948827 -19.1074,23.299679 -27.9894,26.587269 -26.3946,45.648779 z"
       id="path4562"
       inkscape:connector-curvature="0"
       sodipodi:nodetypes="ccssscc" />
    <path
       style="fill:#d0c800;fill-opacity:1;stroke:#000000;stroke-width:0;stroke-linecap:butt;stroke-linejoin:miter;stroke-miterlimit:4;stroke-dasharray:none;stroke-opacity:1"
       d="m 805.84886,538.55705 c 1.26774,6.79006 0.90837,21.16428 1.84327,26.82826 0.2383,1.44372 4.9769,-14.31349 3.73179,-11.5482 -0.51207,1.13727 -0.40519,10.10406 -0.2289,11.28442 6.4139,42.9454 12.36062,41.42785 12.36062,41.42785 -12.69005,-0.42798 -26.02934,14.1399 -32.49955,24.07831 29.41485,3.50177 62.27983,22.54739 47.96835,20.31262 21.33248,19.20944 40.40569,12.47666 50.52376,24.74148 4.90219,7.32956 29.05154,-3.88779 39.28468,-7.58632 15.55738,9.85382 49.37141,0.96943 59.62592,16.26566 -9.78124,-20.34098 15.5021,-19.22767 17.0667,14.10169 23.7429,-46.62908 48.3534,-38.65052 50.3699,-30.008 5.62,-6.9151 10.5707,-14.08116 6.9997,-24.44284 10.0106,4.59556 12.4369,10.68059 23.7959,15.83888 0,0 1.8337,-21.87473 -5.2071,-30.81743 0,0 -7.6497,-15.75273 -7.2612,-18.33497 4.2552,-28.28373 11.5501,-54.58926 9.9845,-80.0646 -1.4186,-23.08287 -10.7686,-75.17236 -31.0423,-89.40524 -3.4002,-2.38707 11.7283,-1.47172 11.2108,-1.89883 -12.3343,-10.17976 -24.6507,-2.78542 -21.2662,-3.74208 1.6972,-0.4797 -18.7171,-34.68067 -20.4165,-32.14142 -1.2136,1.81355 0.9917,20.45943 -0.1399,19.7489 -21.3028,-13.37668 -49.34779,-18.91952 -73.96383,-19.44675 0,0 -50.11686,-4.43607 -77.00455,4.4497 -21.93399,-0.34803 -87.18014,20.31842 -92.54289,49.46092 26.9044,-0.34378 23.94168,4.96037 25.40329,11.36249 16.50864,13.40446 22.21348,6.01702 22.21348,6.01702 -10.06621,-1.40048 -23.28153,50.27945 -20.80974,63.51848 z"
       id="path4530"
       inkscape:connector-curvature="0"
       sodipodi:nodetypes="ssssccccccccccsssssssscccccs" />
    <path
       style="fill:#fff4e3;fill-opacity:1;stroke:#000000;stroke-width:0;stroke-linecap:butt;stroke-linejoin:miter;stroke-miterlimit:4;stroke-dasharray:none;stroke-opacity:1"
       d="m 1025.7455,485.1745 c -18.0955,62.91279 -10.3457,80.49931 -0.5407,110.49924 -48.83567,52.01506 -72.92444,54.11023 -89.80734,56.32723 -28.57337,-8.41342 -51.40277,-13.40403 -77.82314,-53.98862 -6.98482,-23.87527 -12.26957,-52.36496 -4.86669,-77.75873 75.6589,-25.98096 87.10587,-47.82356 173.03787,-35.07912 z"
       id="path4532"
       inkscape:connector-curvature="0"
       sodipodi:nodetypes="cccccc" />
    <path
       style="fill:#d0c800;fill-opacity:1;stroke:#000000;stroke-width:0;stroke-linecap:butt;stroke-linejoin:miter;stroke-miterlimit:4;stroke-dasharray:none;stroke-opacity:1"
       d="m 863.5225,503.29871 c -12.32447,5.16231 -22.42169,39.04008 -5.09078,50.5 -4.61891,-14.12294 13.70001,-51.998 21.85382,-45.53046 -13.13293,2.74538 -8.64149,21.20326 -11.11877,31.1492 4.93507,-3.17636 3.60138,-13.92364 16.86596,-26.3681 5.09002,-15.20693 24.74642,-10.53645 18.81815,-19.09067 -1.87167,-2.70074 -11.91512,25.07589 -9.45489,23.87433 5.62221,-2.74586 23.15606,-27.2743 26.28262,-23.92996 10.70508,11.45069 30.04045,-0.13055 33.36869,-4.04525 -7.73822,5.58299 37.57701,38.39842 39.85907,44.75527 -3.84485,-22.34061 -12.4562,-28.61393 -7.98165,-31.11626 23.61998,15.23171 23.30998,22.08904 15.45388,50.75686 25.8242,-23.75506 18.9853,-6.4102 27.6985,-38.05715 28.5347,-8.15794 -10.858,-27.89442 2.6981,-53.82346 z"
       id="path4534"
       inkscape:connector-curvature="0"
       sodipodi:nodetypes="cccccsssccccccc" />
    <path
       style="fill:#d0c800;fill-opacity:1;stroke:#000000;stroke-width:0;stroke-linecap:butt;stroke-linejoin:miter;stroke-miterlimit:4;stroke-dasharray:none;stroke-opacity:1"
       d="m 1040.8863,581.64209 c -401.59814,-202.23397 -200.79905,-101.11699 0,0 z"
       id="path4536"
       inkscape:connector-curvature="0"
       sodipodi:nodetypes="cc" />
    <path
       sodipodi:nodetypes="ccscccsccccccsssccsacsssccc"
       inkscape:connector-curvature="0"
       id="path4538"
       d="m 379.78539,566.13171 c 9.59571,-1.38794 12.36921,-0.53758 12.44302,-0.0169 1.2418,11.95333 -13.50866,34.9832 -12.35746,35.29797 6.8524,1.87359 15.32496,2.14316 15.32496,2.14316 3.534,9.65727 -6.74696,26.96499 -13.21716,36.9034 29.312,3.45121 38.6736,5.26421 55.5974,18.38238 1.6395,1.47626 7.3755,7.18008 6.3429,5.68139 -2.1524,-3.12418 -27.9881,12.44552 -24.6373,12.94089 58.532,4.21076 69.8035,12.5867 104.6795,1.15521 36.6103,20.6235 55.5925,-36.71988 58.5684,3.18103 23.7429,-46.62908 49.2303,-9.12559 51.2469,-0.48307 5.6199,-6.9151 10.5706,-14.08116 6.9997,-24.44284 10.0106,4.59556 12.4369,10.68059 23.7958,15.83888 0,0 1.8338,-21.87473 -5.207,-30.81743 0,0 -16.5502,-23.32887 -16.1617,-25.91111 4.2552,-28.28373 13.0091,-44.53265 11.4435,-70.00799 -1.4185,-23.08287 -12.42212,-60.90967 -32.69582,-75.14255 6.7001,-8.30313 -5.77378,-31.68275 -8.56718,-28.73491 3.1107,9.74168 -9.2496,6.59919 -14.3965,4.29361 -18.5921,-8.32844 -45.41909,-13.62521 -68.86705,-14.69001 -19.05887,-0.86549 -31.40194,-1.48341 -56.82804,6.8177 -11.1857,0.50112 -33.86688,13.07306 -52.93688,30.98418 -1.4205,1.33414 -21.86883,5.42456 -21.86883,5.42456 7.4213,4.24103 12.2019,3.20606 10.8572,4.54743 -19.9486,19.89855 -35.5543,38.80789 -37.3771,46.92086 5.4894,-3.2145 21.5196,1.79626 22.3625,-2.99727 -5.7255,6.87697 -10.21116,30.72733 -14.54376,42.73143 z"
       style="fill:#2aa01c;fill-opacity:1;stroke:#000000;stroke-width:0;stroke-linecap:butt;stroke-linejoin:miter;stroke-miterlimit:4;stroke-dasharray:none;stroke-opacity:1" />
    <path
       sodipodi:nodetypes="cccccc"
       inkscape:connector-curvature="0"
       id="path4540"
       d="m 603.62665,498.03685 c -13.99819,60.576 0.48252,64.61261 -5.87361,106.84947 -48.8356,46.71192 -62.91429,54.08894 -79.79719,58.51537 -29.60837,-7.37845 -57.00958,-13.64983 -80.73174,-56.93266 -4.27429,-31.4367 -12.21118,-50.88245 -6.63526,-73.35306 75.6589,-25.98096 87.1058,-47.82356 173.0378,-35.07912 z"
       style="fill:#fff4e3;fill-opacity:1;stroke:#000000;stroke-width:0;stroke-linecap:butt;stroke-linejoin:miter;stroke-miterlimit:4;stroke-dasharray:none;stroke-opacity:1" />
    <path
       sodipodi:nodetypes="ccccccscccccc"
       inkscape:connector-curvature="0"
       id="path4542"
       d="m 441.40365,516.16106 c -12.3244,5.16231 -21.74531,41.48508 -4.41441,52.945 -4.6189,-14.12294 15.91561,-41.83661 15.91561,-41.83661 -7.2864,6.25329 1.2976,15.79523 -1.1797,25.74117 4.9351,-3.17636 1.7013,-13.33899 14.9659,-25.78345 -2.3325,-7.77157 27.7509,14.15646 28.9,22.86129 3.7618,-12.04762 3.9071,-38.13264 2.5218,-42.49624 -1.1779,-3.71035 35.28,6.41159 38.6158,-0.77951 20.2489,6.27764 26.4946,13.08035 32.0236,14.36983 23.62,15.23171 21.39939,49.91478 23.05189,55.22485 23.6706,-18.76148 10.74821,30.39381 19.46141,-1.25314 28.5347,-8.15794 -14.1653,-73.9898 -0.6092,-99.91884 z"
       style="fill:#2aa01c;fill-opacity:1;stroke:#000000;stroke-width:0;stroke-linecap:butt;stroke-linejoin:miter;stroke-miterlimit:4;stroke-dasharray:none;stroke-opacity:1" />
    <path
       sodipodi:nodetypes="cc"
       inkscape:connector-curvature="0"
       id="path4544"
       d="m 618.76745,594.50444 c -401.5981,-202.23397 -200.799,-101.11699 0,0 z"
       style="fill:#d0c800;fill-opacity:1;stroke:#000000;stroke-width:0;stroke-linecap:butt;stroke-linejoin:miter;stroke-miterlimit:4;stroke-dasharray:none;stroke-opacity:1" />
    <path
       sodipodi:nodetypes="ssssssacsccssccassss"
       inkscape:connector-curvature="0"
       id="path4546"
       d="m 50.343014,83.319128 c 4.10323,-18.14536 26.390046,-29.91951 44.648426,-33.48633 20.69991,-4.04377 41.4388,6.70331 57.38466,20.50794 23.20185,20.08628 27.24277,51.170262 28.65865,81.826092 1.10789,23.98751 -6.43482,43.55213 -10.80242,67.16467 -2.20922,11.94369 -5.39541,24.69883 -2.06706,36.38021 5.259,18.45727 14.57645,33.32723 28.10338,44.49798 8.56025,7.06918 31.01446,12.13939 31.01446,12.13939 0,0 -22.08935,7.66044 -28.83545,8.06152 -8.09625,0.48136 -14.57275,-6.40787 -14.57275,-6.40787 3.0324,9.69596 1.45895,9.42353 0.82682,11.57552 0.0205,-0.0308 -5.25521,-8.06325 -10.86661,-11.3153 -8.12351,-4.70793 -18.3095,-5.73928 -25.5136,-11.00892 -18.14086,-13.26963 -33.29049,-41.80531 -22.71255,-46.7986 -5.52357,3.33646 0.93628,35.4316 2.22613,40.18475 0,0 -15.06974,-25.81986 -17.54313,-40.24277 -2.93431,-17.11072 3.30901,-40.06139 3.7164,-51.94872 0.57909,-16.89732 4.97962,-37.07019 -5.37435,-50.4362 -5.76829,-7.44632 -19.39889,-3.68608 -26.45833,-9.92187 C 65.036714,128.9513 45.299204,105.62392 50.343014,83.319128 Z"
       style="fill:#bb3a01;fill-opacity:1;stroke:#000000;stroke-width:0;stroke-linecap:butt;stroke-linejoin:miter;stroke-miterlimit:4;stroke-dasharray:none;stroke-opacity:1" />
    <path
       style="fill:#bc3700;fill-opacity:1;stroke:#000000;stroke-width:0;stroke-linecap:butt;stroke-linejoin:miter;stroke-miterlimit:4;stroke-dasharray:none;stroke-opacity:1"
       d="m -168.79349,189.8063 c 1.26774,6.79006 0.90837,21.16428 1.84327,26.82826 0.2383,1.44372 4.9769,-14.31349 3.73179,-11.5482 -0.51207,1.13727 -0.40519,10.10406 -0.2289,11.28442 6.4139,42.9454 0.43363,54.2378 -17.40501,73.26053 -13.44132,11.55361 -25.4305,61.32944 -16.70177,82.97476 3.53844,-6.51088 5.24467,-1.87591 6.95248,-2.20362 0.87877,-0.16863 8.13048,-12.76874 7.4529,-16.49544 -0.18648,-1.02565 -2.06583,15.27426 -2.06583,15.27426 12.65181,-1.31444 16.93508,9.74763 19.47853,16.49503 0.62567,1.65981 9.3493,-5.40283 6.53216,-3.61645 -6.1756,3.91601 -3.0486,13.86175 -3.57219,14.76751 0.038,-2.19456 55.87392,-35.98017 81.482144,2.30821 4.90219,7.32956 22.9127,-28.15085 33.14584,-31.84938 23.29359,-8.41892 36.99655,9.23354 51.9468796,19.58274 2.0432,1.41438 2.26556,-10.42681 2.41717,-9.74825 0.15785,0.70649 0.30113,13.51285 0.69642,14.10169 6.9956104,10.42086 10.4978904,20.22215 10.1516204,21.4857 -3.74618,-2.89312 23.77688,-79.17485 54.32072,-60.6066 12.196376,-14.55651 22.535576,-16.1365 27.443396,-17.09614 7.72477,0.21864 33.3341,27.35347 33.50166,30.80206 0,0 4.90881,-23.83183 -0.0902,-33.35812 C 120.6346,310.33436 104.92618,281.59534 99.4872,255.6377 91.66765,218.31879 111.64999,177.33508 99.3334,141.24979 90.77269,116.1685 79.59019,82.933678 53.800734,79.325138 c -0.64465,-0.0902 6.55684,-18.7333 5.35836,-16.44447 -1.01227,1.93319 -10.11675,12.2743 -11.24829,11.56377 -21.30284,-13.37668 -49.3478404,-18.91952 -73.96388,-19.44676 -23.9948,-0.51393 -50.02659,4.4709 -70.33569,16.6336 -10.079244,6.03625 -16.886994,10.81793 -25.165984,17.47429 -1.12075,0.90109 -29.62694,16.376102 -28.17179,16.459972 19.34861,1.11531 18.37588,-6.201502 17.56316,-5.3452 -10.08798,10.62898 -15.76392,20.42547 -26.98248,39.08995 -8.02666,13.35406 -12.11942,37.25698 -9.64763,50.49601 z"
       id="path4549"
       inkscape:connector-curvature="0"
       sodipodi:nodetypes="ssssccssssscsssssccccsssssssssssss" />
    <path
       style="fill:#fff4e3;fill-opacity:1;stroke:#000000;stroke-width:0;stroke-linecap:butt;stroke-linejoin:miter;stroke-miterlimit:4;stroke-dasharray:none;stroke-opacity:1"
       d="m 51.103164,136.42375 c -18.09552,62.91279 -10.34572,80.49931 -0.54073,110.49924 -48.8216604,52.0034 -59.1973204,44.12687 -89.22267,57.29591 -25.92468,-15.69732 -51.98742,-14.37271 -78.407794,-54.9573 -6.98482,-23.87527 -12.26957,-52.36496 -4.86669,-77.75873 75.658904,-25.98096 87.105874,-47.82356 173.037884,-35.07912 z"
       id="path4551"
       inkscape:connector-curvature="0"
       sodipodi:nodetypes="cccccc" />
    <path
       style="fill:#bc3700;fill-opacity:1;stroke:#000000;stroke-width:0;stroke-linecap:butt;stroke-linejoin:miter;stroke-miterlimit:4;stroke-dasharray:none;stroke-opacity:1"
       d="m -111.11985,154.54796 c -12.32447,5.16231 -22.42169,39.04008 -5.09078,50.5 -4.61891,-14.12294 13.70001,-51.998 21.853824,-45.53046 -13.132934,2.74538 2.31391,11.9015 -0.16337,21.84744 4.93507,-3.17636 3.97933,0.79906 17.24391,-11.6454 8.57859,-8.94499 13.97875,-9.46447 21.85298,-6.98645 l 8.6519,-14.03165 c -7.96214,3.07838 -31.83987,13.91387 -21.85103,31.24951 3.94337,-22.93991 49.99219,-31.42085 49.02737,-38.8439 -7.73822,5.58299 -13.2361,20.53106 -10.95404,26.88791 12.23309,-12.69385 35.8764396,-14.46727 40.3509896,-16.9696 29.1324904,9.51758 14.8240004,33.35011 13.8002104,49.93004 25.82419,-23.75506 23.11949,-1.86268 31.83264,-33.50963 28.534706,-8.15794 -10.85798,-27.89442 2.69809,-53.82346 z"
       id="path4553"
       inkscape:connector-curvature="0"
       sodipodi:nodetypes="ccccccccccccccc" />
    <path
       sodipodi:type="spiral"
       style="fill:none;fill-rule:evenodd;stroke:#000000;stroke-width:2.11423826;stroke-miterlimit:4;stroke-dasharray:none"
       id="path6140"
       sodipodi:cx="-9.8385019"
       sodipodi:cy="209.60947"
       sodipodi:expansion="1"
       sodipodi:revolution="3"
       sodipodi:radius="24.227531"
       sodipodi:argument="-18.186354"
       sodipodi:t0="0"
       d="m -9.8385019,209.60947 c 0.9572373,0.74784 -0.5358071,1.65929 -1.2429601,1.59099 -1.916341,-0.1851 -2.50967,-2.53771 -1.939023,-4.07691 1.020755,-2.75327 4.4597915,-3.48347 6.9108633,-2.28706 3.5970465,1.75579 4.4821587,6.40651 2.6350853,9.74482 -2.4618583,4.44943 -8.3617906,5.49121 -12.5787656,2.98311 -5.306634,-3.15618 -6.50559,-10.3211 -3.331148,-15.41271 3.844674,-6.16663 12.282677,-7.52303 18.2466686,-3.67918 7.0283578,4.52984 8.5423972,14.24566 4.0272105,21.08062 -5.2129618,7.89123 -16.2095851,9.56305 -23.9145721,4.37524 -8.754895,-5.89472 -10.584597,-18.17417 -4.723273,-26.74852 6.57552,-9.61913 20.1392389,-11.6068 29.582475,-5.07131 10.483782,7.25564 12.629491,22.10467 5.4193356,32.41643" />
    <path
       d="m -170.1188,-301.20636 c 0.66328,0.51819 -0.37128,1.14976 -0.86128,1.10243 -1.32787,-0.12826 -1.739,-1.75843 -1.34359,-2.82498 0.7073,-1.90779 3.09029,-2.41376 4.78868,-1.58474 2.49247,1.21662 3.10579,4.4392 1.82591,6.75238 -1.70587,3.08311 -5.79406,3.80498 -8.71609,2.06707 -3.67708,-2.18699 -4.50786,-7.15171 -2.30822,-10.6798 2.66405,-4.27298 8.51092,-5.21286 12.6435,-2.54938 4.87009,3.13883 5.9192,9.87112 2.79053,14.6072 -3.61217,5.468 -11.23196,6.62644 -16.5709,3.0317 -6.06645,-4.08457 -7.33429,-12.59326 -3.27286,-18.53461 4.55632,-6.6653 13.9549,-8.04259 20.49832,-3.51401 7.26443,5.02758 8.75124,15.31679 3.75517,22.46202"
       sodipodi:t0="0"
       sodipodi:argument="-18.186354"
       sodipodi:radius="16.787764"
       sodipodi:revolution="3"
       sodipodi:expansion="1"
       sodipodi:cy="-301.20636"
       sodipodi:cx="-170.1188"
       id="path6144"
       style="fill:none;fill-rule:evenodd;stroke:#000000;stroke-width:1.46500003;stroke-miterlimit:4;stroke-dasharray:none"
       sodipodi:type="spiral"
       transform="matrix(-0.53093122,-1.1631951,1.1829102,-0.53992999,183.05929,-143.46928)" />
    <path
       style="fill:#bc3700;fill-opacity:1;stroke:#000000;stroke-width:0;stroke-linecap:butt;stroke-linejoin:miter;stroke-miterlimit:4;stroke-dasharray:none;stroke-opacity:1"
       d="m 35.962364,178.5187 c 2.75711,37.9309 -1.0872,41.79151 -11.35562,54.37264 6.89018,2.96662 27.40883,-12.48902 19.95316,9.51351 30.367636,26.15604 12.67178,-3.86166 21.68409,-9.51351 z"
       id="path4555"
       inkscape:connector-curvature="0"
       sodipodi:nodetypes="ccccc" />
    <path
       style="fill:#ffffff;fill-opacity:1;stroke:#000000;stroke-width:0;stroke-linecap:butt;stroke-linejoin:miter;stroke-miterlimit:4;stroke-dasharray:none;stroke-opacity:1"
       d="m 947.97682,222.12799 c 6.54772,0.0451 5.67744,4.22477 19.95125,-0.0365 2.22119,-9.11425 0.55095,-17.97745 -1.4251,-26.82091 l -16.73566,-3.36175 -3.65408,5.48111 z"
       id="path4526"
       inkscape:connector-curvature="0"
       sodipodi:nodetypes="cccccc" />
    <path
       style="fill:#000000;fill-opacity:1;stroke:#000000;stroke-width:0.27194402px;stroke-linecap:butt;stroke-linejoin:miter;stroke-opacity:1"
       d="m 944.28286,190.96705 -0.26827,31.75148 c 1.2117,1.64111 6.06479,1.72096 7.27648,0.69766 -1.97548,-10.58906 -1.60224,-20.99085 -1.15566,-27.57607 0.25488,-3.75854 8.5584,-3.27865 12.03969,-1.23969 4.54812,2.66379 5.35844,9.32179 6.28162,14.51109 0.83649,4.70199 -0.80779,14.30467 -0.80779,14.30467 0,0 4.24462,-11.8305 3.53411,-17.88082 -0.57042,-4.85728 -2.38919,-9.74795 -6.05847,-13.07535 -5.67995,-5.15073 -20.84171,-6.33664 -20.84171,-1.49297 z"
       id="path4522"
       inkscape:connector-curvature="0"
       sodipodi:nodetypes="cccsaacasc" />
    <path
       sodipodi:nodetypes="cccccc"
       inkscape:connector-curvature="0"
       id="path4528"
       d="m 872.47684,223.87754 c 6.75483,0.0499 5.85702,4.67371 20.58233,-0.0404 2.29145,-10.08275 0.56838,-19.88779 -1.47017,-29.67098 -5.75501,-1.23966 18.62668,2.22288 -15.19798,-1.75528 5.41509,7.73974 -3.42195,3.30766 -4.90654,5.13338 z"
       style="fill:#ffffff;fill-opacity:1;stroke:#000000;stroke-width:0;stroke-linecap:butt;stroke-linejoin:miter;stroke-miterlimit:4;stroke-dasharray:none;stroke-opacity:1" />
    <path
       sodipodi:nodetypes="cccsaacasc"
       inkscape:connector-curvature="0"
       id="path4524"
       d="m 893.27193,191.80899 0.23689,33.34096 c -1.06996,1.72326 -5.35534,1.80711 -6.42529,0.73259 2.37894,-11.84843 1.67117,-23.58628 1.02047,-28.95654 -0.47043,-3.88245 -7.65984,-3.01351 -10.69969,-1.11168 -4.52524,2.83115 -4.67623,9.77017 -5.47842,15.04745 -0.7533,4.95564 0.71329,15.02077 0.71329,15.02077 0,0 -3.74808,-12.42274 -3.1207,-18.77595 0.50369,-5.10042 1.9986,-10.51286 5.34977,-13.7299 4.96381,-4.76512 18.10211,-6.09119 18.40368,-1.5677 z"
       style="fill:#000000;fill-opacity:1;stroke:#000000;stroke-width:0.26186192px;stroke-linecap:butt;stroke-linejoin:miter;stroke-opacity:1" />
    <path
       sodipodi:nodetypes="csscssssssscsssccscscscssscsssssasac"
       inkscape:connector-curvature="0"
       id="path4535"
       d="m 792.6239,-120.80632 c -4.93944,23.778062 0.4592,33.528312 1.13206,36.648452 0.54405,2.52285 2.34737,-24.360122 3.04805,-22.050182 16.80258,55.393142 -20.8534,66.541632 14.46194,110.1747725 1.18836,-0.58626 4.71782,-1.49778 3.48281,-1.64643 -1.04718,-0.12605 -3.63783,-14.2173605 -2.35356,-14.5765105 1.00354,-0.28066 -3.28486,-5.36247 -2.89134,-4.45945 1.63958,3.76241 6.54894,17.6104905 7.97443,17.2734405 0.53919,-0.12749 1.42464,-0.0759 1.15392,-0.54094 -0.0874,-0.15006 -3.01109,-11.9659805 -2.87081,-10.6951905 0.25731,2.3309205 3.78829,10.1838805 4.34462,10.0717705 29.71865,-5.98877 40.6131,11.3502795 39.48528,13.3013195 14.77374,-8.3423195 37.2704,-5.7715495 47.93615,6.95032 0.59872,0.71414 5.67942,-8.38562 5.81146,-10.2074895 0.038,-0.5247 -2.74057,10.3137095 -2.56559,10.3403895 3.16004,0.48183 5.92876,0.0411 9.07332,-0.96061 42.44505,-15.3407895 38.02265,0.28407 47.81865,4.64239 -2.877,-2.22186 2.0938,-26.8332495 24.4266,-34.53929 1.1523,-0.39761 10.77871,18.1016105 9.07881,27.55406 7.697,1.69513 19.2879,-1.39678 17.6685,0.53236 -1.3511,1.60943 1.3088,-22.0915595 4.9738,-19.8784895 -5.1206,-7.2694605 -2.4015,21.0160695 -0.8401,19.8261395 17.3193,-13.1989395 22.217,-23.7957195 29.1975,-27.03931 -0.8739,-17.14986 -5.4901,-34.17108 3.6845,-49.17293 0.2764,-0.45188 -0.2072,-16.11227 0.092,-16.56177 0.4824,-0.72377 1.5477,15.08074 2.0932,14.36325 0.4957,-0.652 2.46,-3.98033 3.0105,-4.62707 -7.8196,-37.318912 10.2432,-74.657122 -2.5487,-108.902862 -2.8125,-7.52946 -2.132,-5.74925 -2.8933,-10.45446 -0.3887,-2.40213 13.0514,6.86522 13.0514,6.86522 -8.3324,-15.39238 -25.2447,-27.92773 -28.7501,-31.41476 -10.133,-10.07983 -20.6516,-19.2465 -32.3497,-26.83679 -21.05611,-13.66226 -47.48501,-19.85507 -72.58441,-20.04111 -23.11067,-0.1713 -46.79026,5.29772 -67.09936,17.46042 -25.80664,15.45507 -44.49158,32.04479 -58.1594,54.94635 -11.25916,18.86565 -13.89364,46.67148 -17.09313,63.65499 z"
       style="fill:#2f95e4;fill-opacity:1;stroke:#000000;stroke-width:0;stroke-linecap:butt;stroke-linejoin:miter;stroke-miterlimit:4;stroke-dasharray:none;stroke-opacity:1" />
    <path
       sodipodi:nodetypes="cccccc"
       inkscape:connector-curvature="0"
       id="path4537"
       d="m 1012.959,-184.56645 c -18.09548,62.91279 -11.9535,78.45303 -2.1485,108.452962 -53.50881,46.64658 -58.35381,43.19071 -89.0765,55.24963 -14.67013,-6.34289 -48.37311,-12.82547 -74.79348,-53.41006 -6.60968,-27.415842 -14.37645,-49.865442 -7.01937,-75.213412 56.8322,-12.42574 87.10587,-47.82357 173.03785,-35.07912 z"
       style="fill:#fff4e3;fill-opacity:1;stroke:#000000;stroke-width:0;stroke-linecap:butt;stroke-linejoin:miter;stroke-miterlimit:4;stroke-dasharray:none;stroke-opacity:1" />
    <path
       sodipodi:nodetypes="ccccsccccccccccssscccc"
       inkscape:connector-curvature="0"
       id="path4539"
       d="m 850.73602,-166.44224 c -12.32447,5.16231 -38.39123,30.51751 -15.78932,62.85471 7.6504,-39.96387 27.52786,-89.85568 30.65224,-56.13121 -13.13293,2.74538 6.9012,10.76766 4.42392,20.7136 3.36326,-5.06257 6.97652,-9.63676 10.97482,-13.17549 1.68187,-1.48856 3.35824,2.02481 6.21637,2.69692 1.37766,-7.482 6.70406,-10.67486 3.69929,-9.87949 0.44943,0.86323 -1.01636,1.48121 -1.55915,9.42847 2.00408,-0.0428 6.3099,0.58593 6.3099,0.58593 -0.41975,-3.69678 1.14508,-10.51984 4.90772,-9.34461 l 14.51274,-13.59532 c -7.96214,3.07838 -21.95776,5.17168 -11.96892,22.50732 3.94337,-22.93991 40.11016,-22.67866 39.14526,-30.10171 -7.7382,5.58299 -3.7276,8.74883 -1.4455,15.10568 12.2331,-12.69385 28.6313,-1.4638 32.8135,-0.45822 11.9007,3.88796 10.2978,5.78146 13.1661,16.07105 1.4439,5.17973 2.6407,14.42204 3.0086,15.11234 0.774,1.45221 2.0454,-4.98291 2.1349,-4.252 1.72723,14.10441 -1.386,25.94921 -1.9329,34.80596 25.82421,-23.75506 18.57201,-18.39914 27.28511,-50.04609 28.5347,-8.15794 -10.8579,-27.89442 2.6981,-53.82346 z"
       style="fill:#2f95e4;fill-opacity:1;stroke:#000000;stroke-width:0;stroke-linecap:butt;stroke-linejoin:miter;stroke-miterlimit:4;stroke-dasharray:none;stroke-opacity:1" />
    <path
       sodipodi:nodetypes="ccccc"
       inkscape:connector-curvature="0"
       id="path4541"
       d="m 1002.5724,-191.66746 c 3.3773,78.65193 -3.77428,91.60759 -14.04271,104.188722 6.89023,2.96662 17.12731,-1.14707 6.77773,14.44758 16.10938,5.16614 23.80698,-9.14796 32.79248,-15.0677 z"
       style="fill:#2f95e4;fill-opacity:1;stroke:#000000;stroke-width:0;stroke-linecap:butt;stroke-linejoin:miter;stroke-miterlimit:4;stroke-dasharray:none;stroke-opacity:1" />
    <path
       sodipodi:nodetypes="csscsscc"
       inkscape:connector-curvature="0"
       id="path4543"
       d="m 905.13277,-223.21378 c 0,0 45.26662,-9.02503 72.79262,4.75244 20.48313,10.2523 31.21711,22.95875 41.10941,40.45378 5.9302,10.48786 6.7516,22.57426 6.7516,22.57426 0.03,-0.0789 -26.82278,-42.79985 -47.16561,-50.50461 -21.2306,-8.04098 -48.9423,-13.64615 -79.03076,-6.65865 -16.71305,3.88131 -41.37094,20.75685 -60.4161,29.53636 28.14885,-28.84387 63.70181,-40.16934 65.95884,-40.15358 z"
       style="fill:#1565a2;fill-opacity:1;stroke:#000000;stroke-width:0;stroke-linecap:butt;stroke-linejoin:miter;stroke-miterlimit:4;stroke-dasharray:none;stroke-opacity:1" />
    <path
       style="fill:#000000;fill-opacity:1;stroke:#000000;stroke-width:0;stroke-linecap:butt;stroke-linejoin:miter;stroke-miterlimit:4;stroke-dasharray:none;stroke-opacity:1"
       d="m 919.3683,271.67446 c 6.2259,-0.71818 18.90659,-0.10411 27.21413,-4.37834 2.94335,-1.51435 9.8242,-5.63421 9.8242,-5.63421 -1.50486,2.96156 -3.50333,4.86453 -5.99153,6.39455 -5.86033,3.60358 -12.93595,5.47629 -19.80811,5.79679 -3.81184,0.17778 -13.17879,-1.95499 -11.23869,-2.17879 z"
       id="path4561"
       inkscape:connector-curvature="0"
       sodipodi:nodetypes="sssaas" />
    <path
       style="fill:#fff4e3;stroke:#000000;stroke-width:0;stroke-linecap:butt;stroke-linejoin:miter;stroke-opacity:1;stroke-miterlimit:4;stroke-dasharray:none;fill-opacity:1"
       d="m 920.87403,228.78711 v 11.98893 h 3.7207 l -2.27378,-1.86035 z"
       id="path4563"
       inkscape:connector-curvature="0" />
    <path
       sodipodi:nodetypes="ssssssacsccssccassss"
       inkscape:connector-curvature="0"
       id="path4565"
       d="m 593.65885,-334.08214 c 4.10323,-18.14536 26.39005,-29.91951 44.64843,-33.48632 20.69991,-4.04378 41.4388,6.7033 57.38466,20.50793 23.20185,20.08629 27.24277,51.17026 28.65865,81.82609 1.10789,23.98751 -6.43482,43.55213 -10.80242,67.16467 -2.20922,11.94369 -5.39541,24.69883 -2.06706,36.38021 5.259,18.45727 14.57645,33.32723 28.10338,44.49798 8.56025,7.06918 31.01446,12.13939 31.01446,12.13939 0,0 -22.08935,7.66044 -28.83545,8.06152 -8.09625,0.48136 -14.57275,-6.40787 -14.57275,-6.40787 3.0324,9.69596 1.45895,9.42353 0.82682,11.57552 0.0205,-0.0308 -5.25521,-8.06325 -10.86661,-11.3153 -8.12351,-4.70793 -18.3095,-5.73928 -25.5136,-11.00892 -18.14086,-13.26963 -33.29049,-41.80531 -22.71255,-46.7986 -5.52357,3.33646 0.93628,35.4316 2.22613,40.18475 0,0 -15.06974,-25.81986 -17.54313,-40.24277 -2.93431,-17.11072 3.30901,-40.06139 3.7164,-51.94872 0.57909,-16.89732 4.97962,-37.07019 -5.37435,-50.4362 -5.76829,-7.44632 -19.39889,-3.68608 -26.45833,-9.92187 -17.13898,-15.13932 -36.87649,-38.4667 -31.83268,-60.77149 z"
       style="fill:#bb3a01;fill-opacity:1;stroke:#000000;stroke-width:0;stroke-linecap:butt;stroke-linejoin:miter;stroke-miterlimit:4;stroke-dasharray:none;stroke-opacity:1" />
    <path
       style="fill:#bc3700;fill-opacity:1;stroke:#000000;stroke-width:0;stroke-linecap:butt;stroke-linejoin:miter;stroke-miterlimit:4;stroke-dasharray:none;stroke-opacity:1"
       d="m 374.52235,-227.59497 c 1.26774,6.79006 -0.11477,21.45661 0.82013,27.12059 0.2383,1.44372 6.00004,-14.60582 4.75493,-11.84053 -0.51207,1.13727 -0.40519,10.10406 -0.2289,11.28442 6.4139,42.9454 0.43363,54.2378 -17.40501,73.26053 -13.44132,11.55361 -25.4305,61.32944 -16.70177,82.97476 3.53844,-6.51088 5.24467,-1.87591 6.95248,-2.20362 0.87877,-0.16863 8.13048,-12.76874 7.4529,-16.49544 -0.18648,-1.02565 -2.06583,15.27426 -2.06583,15.27426 12.65181,-1.31444 16.93508,9.74763 19.47853,16.49503 0.62567,1.65981 9.3493,-5.40283 6.53216,-3.61645 -6.1756,3.91601 -3.0486,13.86175 -3.57219,14.76751 0.038,-2.19456 55.87392,-35.98017 81.48214,2.30821 4.90219,7.32956 22.9127,-28.15085 33.14584,-31.84938 23.29359,-8.41892 36.99655,9.23354 51.94688,19.58274 2.0432,1.41438 2.26556,-10.42681 2.41717,-9.74825 0.15785,0.70649 0.30113,13.51285 0.69642,14.10169 6.99561,10.42086 10.49789,20.2221504 10.15162,21.4857004 -3.74618,-2.89312 23.77688,-79.1748504 54.32072,-60.6066004 12.19638,-14.55651 22.68174,-12.48242 27.58956,-13.44206 15.76374,-1.09683 33.18794,23.69939 33.3555,27.14798 0,0 4.03183,-23.5395 -0.0902,-33.35812 -9.66753,-23.0279 -27.31341,-50.85393 -32.75239,-76.81157 -7.81955,-37.31891 12.16279,-78.30262 -0.1538,-114.38791 -8.56071,-25.08129 -19.74321,-58.31611 -45.53267,-61.92465 -0.64465,-0.0902 6.06993,-18.89783 3.91142,-17.478 -1.83909,1.20973 -8.66981,13.30783 -9.80135,12.5973 -21.30284,-13.37668 -49.34784,-18.91952 -73.96388,-19.44675 -23.9948,-0.51393 -50.02659,4.47089 -70.33569,16.63359 -10.07924,6.03626 -16.88699,10.81794 -25.16598,17.47429 -1.12075,0.90109 -29.62694,16.3761 -28.17179,16.45998 19.34861,1.1153 18.37588,-6.20151 17.56316,-5.34521 -10.08798,10.62898 -15.76392,20.42547 -26.98248,39.08995 -8.02666,13.35406 -12.11942,37.25698 -9.64763,50.49601 z"
       id="path4567"
       inkscape:connector-curvature="0"
       sodipodi:nodetypes="ssssccssssscsssssccccsssssssssssss" />
    <path
       style="fill:#fff4e3;fill-opacity:1;stroke:#000000;stroke-width:0;stroke-linecap:butt;stroke-linejoin:miter;stroke-miterlimit:4;stroke-dasharray:none;stroke-opacity:1"
       d="m 594.419,-280.97752 c -18.09552,62.91279 -10.34572,80.49931 -0.54073,110.49924 -48.82166,52.0034 -59.19732,44.12687 -89.22267,57.29591 -25.92468,-15.69732 -51.98742,-14.37271 -78.40779,-54.9573 -6.98482,-23.87527 -12.26957,-52.36496 -4.86669,-77.75873 75.6589,-25.98096 87.10587,-47.82356 173.03788,-35.07912 z"
       id="path4569"
       inkscape:connector-curvature="0"
       sodipodi:nodetypes="cccccc" />
    <path
       style="fill:#bc3700;fill-opacity:1;stroke:#000000;stroke-width:0;stroke-linecap:butt;stroke-linejoin:miter;stroke-miterlimit:4;stroke-dasharray:none;stroke-opacity:1"
       d="m 432.19599,-262.85331 c -12.32447,5.16231 -22.42169,39.04008 -5.09078,50.5 -4.61891,-14.12294 13.70001,-51.998 21.85382,-45.53046 -13.13293,2.74538 2.31391,11.9015 -0.16337,21.84744 4.93507,-3.17636 3.97933,0.79906 17.24391,-11.6454 8.57859,-8.94499 13.97875,-9.46447 21.85298,-6.98645 l 8.6519,-14.03165 c -7.96214,3.07838 -31.83987,13.91387 -21.85103,31.24951 3.94337,-22.93991 49.99219,-31.42085 49.02737,-38.8439 -7.73822,5.58299 -13.2361,20.53106 -10.95404,26.88791 12.23309,-12.69385 35.87644,-14.46727 40.35099,-16.9696 29.13249,9.51758 14.824,33.35011 13.80021,49.93004 25.82419,-23.75506 23.11949,-1.86268 31.83264,-33.50963 28.53471,-8.15794 -10.85798,-27.89442 2.69809,-53.82346 z"
       id="path4571"
       inkscape:connector-curvature="0"
       sodipodi:nodetypes="ccccccccccccccc" />
    <path
       style="fill:#bc3700;fill-opacity:1;stroke:#000000;stroke-width:0;stroke-linecap:butt;stroke-linejoin:miter;stroke-miterlimit:4;stroke-dasharray:none;stroke-opacity:1"
       d="m 579.2782,-238.88257 c 2.75711,37.9309 -1.0872,41.79151 -11.35562,54.37264 6.89018,2.96662 27.40883,-12.48902 19.95316,9.51351 30.36764,26.15604 12.67178,-3.86166 21.68409,-9.51351 z"
       id="path4573"
       inkscape:connector-curvature="0"
       sodipodi:nodetypes="ccccc" />
    <path
       style="fill:#000000;fill-opacity:1;stroke:#000000;stroke-width:0;stroke-linecap:butt;stroke-linejoin:miter;stroke-miterlimit:4;stroke-dasharray:none;stroke-opacity:1"
       d="m 543.55224,-192.21984 c 0.13839,-0.64887 -3.4279,-1.81753 -3.92874,-1.73112 -3.09864,0.53466 -1.76502,0.93174 -14.02818,0.38861 -0.95413,-0.0423 -6.65792,0.85843 -6.2597,1.11072 4.92562,-0.75055 7.29414,1.07885 24.21662,0.23179 z"
       id="path6426"
       inkscape:connector-curvature="0"
       sodipodi:nodetypes="csscc" />
    <path
       style="fill:#ffffff;fill-opacity:1;stroke:#000000;stroke-width:0;stroke-linecap:round;stroke-linejoin:round;stroke-miterlimit:4;stroke-dasharray:none;stroke-opacity:1;paint-order:stroke fill markers"
       d="m 524.19305,-221.32235 c -2.47055,1.30034 -4.85927,8.7805 -4.62752,13.50523 0.22201,4.52633 1.68749,9.4236 5.68089,12.49929 4.48787,3.45655 10.50594,2.95265 15.37288,-1.10304 3.48113,-2.90084 4.46591,-12.1792 4.46591,-12.1792 0.33896,-6.05629 -0.86755,-10.19462 -4.8008,-12.7984 -4.3863,-2.90372 -10.60397,-2.81211 -16.09136,0.0761 z"
       id="path4577"
       inkscape:connector-curvature="0"
       sodipodi:nodetypes="casssasc" />
    <path
       style="fill:#000000;fill-opacity:1;stroke:#000000;stroke-width:0;stroke-linecap:butt;stroke-linejoin:miter;stroke-miterlimit:4;stroke-dasharray:none;stroke-opacity:1"
       d="m 503.40419,-215.21015 c 0,0 13.97611,-8.89292 21.68787,-10.01379 7.01448,-1.01954 18.83375,-1.03923 25.67395,0.54125 0,0 8.00364,1.09033 7.41572,1.13182 -0.676,0.0478 -5.48694,0.79947 -5.48694,0.79947 -0.2454,-0.0737 2.56856,-0.12844 7.75306,1.33141 0.45929,0.12933 -5.31867,1.2905 -5.08326,1.68283 2.31629,3.8604 2.92562,8.58947 2.03569,13.34179 -0.89587,4.78404 -9.27293,14.15862 -9.27293,14.15862 0,0 6.24886,-12.18187 5.37479,-16.13665 -1.19704,-5.41604 -4.72718,-9.18176 -9.21959,-11.41095 -7.75998,-3.8506 -17.64905,-2.67536 -26.28832,-1.23628 -5.20043,0.86627 -14.59004,5.81048 -14.59004,5.81048 z"
       id="path4575"
       inkscape:connector-curvature="0"
       sodipodi:nodetypes="cssssssscsaac" />
    <path
       style="fill:#000000;fill-opacity:1;stroke:#000000;stroke-width:0;stroke-linecap:butt;stroke-linejoin:miter;stroke-miterlimit:4;stroke-dasharray:none;stroke-opacity:1"
       d="m 524.19305,-221.75948 c -5.03169,8.28924 -4.83632,18.77613 0.014,25.70619 -0.11084,0.28498 -4.98941,-5.92685 -4.75184,-13.01283 0.12056,-8.4072 3.78648,-11.18862 4.73785,-12.69342 z"
       id="path6428"
       inkscape:connector-curvature="0"
       sodipodi:nodetypes="ccccc" />
    <path
       sodipodi:nodetypes="ccccc"
       inkscape:connector-curvature="0"
       id="path6430"
       d="m 542.90053,-220.36087 c 3.73781,8.8434 2.13761,19.21539 -3.47413,25.48232 0.0686,0.29631 5.61079,-5.25509 6.33554,-12.30939 1.01548,-8.34955 -2.14632,-11.56288 -2.86148,-13.17299 z"
       style="fill:#000000;fill-opacity:1;stroke:#000000;stroke-width:0;stroke-linecap:butt;stroke-linejoin:miter;stroke-miterlimit:4;stroke-dasharray:none;stroke-opacity:1" />
  </g>
</svg>
