<?xml version="1.0" encoding="UTF-8" standalone="no"?>
<!-- Created with Inkscape (http://www.inkscape.org/) -->

<svg
   xmlns:dc="http://purl.org/dc/elements/1.1/"
   xmlns:cc="http://creativecommons.org/ns#"
   xmlns:rdf="http://www.w3.org/1999/02/22-rdf-syntax-ns#"
   xmlns:svg="http://www.w3.org/2000/svg"
   xmlns="http://www.w3.org/2000/svg"
   xmlns:sodipodi="http://sodipodi.sourceforge.net/DTD/sodipodi-0.dtd"
   xmlns:inkscape="http://www.inkscape.org/namespaces/inkscape"
   width="210mm"
   height="297mm"
   viewBox="0 0 210 297"
   version="1.1"
   id="svg8"
   inkscape:version="0.92.2 (5c3e80d, 2017-08-06)"
   sodipodi:docname="ukkeleitajamuuta.svg">
  <defs
     id="defs2" />
  <sodipodi:namedview
     id="base"
     pagecolor="#ffffff"
     bordercolor="#666666"
     borderopacity="1.0"
     inkscape:pageopacity="0.0"
     inkscape:pageshadow="2"
     inkscape:zoom="0.25"
     inkscape:cx="1423.4649"
     inkscape:cy="400.53827"
     inkscape:document-units="mm"
     inkscape:current-layer="layer1"
     showgrid="false"
     showborder="false"
     showguides="false"
     inkscape:window-width="1920"
     inkscape:window-height="1017"
     inkscape:window-x="-8"
     inkscape:window-y="79"
     inkscape:window-maximized="1" />
  <metadata
     id="metadata5">
    <rdf:RDF>
      <cc:Work
         rdf:about="">
        <dc:format>image/svg+xml</dc:format>
        <dc:type
           rdf:resource="http://purl.org/dc/dcmitype/StillImage" />
        <dc:title></dc:title>
      </cc:Work>
    </rdf:RDF>
  </metadata>
  <g
     inkscape:label="Layer 1"
     inkscape:groupmode="layer"
     id="layer1">
    <circle
       id="path4510"
       cx="6.0614457"
       cy="165.82304"
       r="64.679222"
       style="fill:#fc9797;fill-opacity:1;stroke:none;stroke-width:0;stroke-miterlimit:4;stroke-dasharray:none;stroke-opacity:1" />
    <g
       id="g4550"
       transform="translate(-105.30419,-32.339613)">
      <circle
         r="30.067818"
         id="circle4540"
         cx="144.37344"
         cy="168.09485"
         style="fill:#fc9797;fill-opacity:1;stroke:none;stroke-width:0;stroke-miterlimit:4;stroke-dasharray:none;stroke-opacity:1" />
      <g
         transform="translate(0.53453906,-0.26726953)"
         id="g4545">
        <circle
           r="24.455158"
           id="circle4542"
           cx="144.37346"
           cy="168.36214"
           style="fill:#fcffff;fill-opacity:1;stroke:none;stroke-width:0;stroke-miterlimit:4;stroke-dasharray:none;stroke-opacity:1" />
      </g>
    </g>
    <g
       transform="translate(-187.08867,-1.0690782)"
       id="g4558">
      <circle
         style="fill:#fc9797;fill-opacity:1;stroke:none;stroke-width:0;stroke-miterlimit:4;stroke-dasharray:none;stroke-opacity:1"
         cy="168.09485"
         cx="144.37344"
         id="circle4552"
         r="30.067818" />
      <g
         id="g4556"
         transform="translate(0.53453906,-0.26726953)">
        <circle
           style="fill:#fcffff;fill-opacity:1;stroke:none;stroke-width:0;stroke-miterlimit:4;stroke-dasharray:none;stroke-opacity:1"
           cy="168.36214"
           cx="144.37346"
           id="circle4554"
           r="24.455158" />
      </g>
    </g>
    <g
       id="g4587"
       transform="translate(-440.72024,71.815476)">
      <circle
         id="circle4560"
         cx="170.43221"
         cy="106.22194"
         r="64.679222"
         style="fill:#fc9797;fill-opacity:1;stroke:none;stroke-width:0;stroke-miterlimit:4;stroke-dasharray:none;stroke-opacity:1" />
      <g
         id="g4568"
         transform="translate(73.766389,-60.670183)">
        <circle
           r="30.067818"
           id="circle4562"
           cx="144.37344"
           cy="168.09485"
           style="fill:#fc9797;fill-opacity:1;stroke:none;stroke-width:0;stroke-miterlimit:4;stroke-dasharray:none;stroke-opacity:1" />
        <g
           transform="translate(0.53453906,-0.26726953)"
           id="g4566">
          <circle
             r="24.455158"
             id="circle4564"
             cx="144.37346"
             cy="168.36214"
             style="fill:#fcffff;fill-opacity:1;stroke:none;stroke-width:0;stroke-miterlimit:4;stroke-dasharray:none;stroke-opacity:1" />
        </g>
      </g>
      <g
         transform="translate(-22.717911,-60.670183)"
         id="g4576">
        <circle
           style="fill:#fc9797;fill-opacity:1;stroke:none;stroke-width:0;stroke-miterlimit:4;stroke-dasharray:none;stroke-opacity:1"
           cy="168.09485"
           cx="144.37344"
           id="circle4570"
           r="30.067818" />
        <g
           id="g4574"
           transform="translate(0.53453906,-0.26726953)">
          <circle
             style="fill:#fcffff;fill-opacity:1;stroke:none;stroke-width:0;stroke-miterlimit:4;stroke-dasharray:none;stroke-opacity:1"
             cy="168.36214"
             cx="144.37346"
             id="circle4572"
             r="24.455158" />
        </g>
      </g>
    </g>
    <ellipse
       style="fill:#fcffff;fill-opacity:1;stroke:#fc0000;stroke-width:0;stroke-miterlimit:4;stroke-dasharray:none;stroke-opacity:1"
       id="path4589"
       cx="-132.56569"
       cy="153.90303"
       rx="5.8799295"
       ry="9.5139256" />
    <ellipse
       style="fill:#000000;fill-opacity:1;stroke:#e20f3a;stroke-width:5.67155743;stroke-miterlimit:4;stroke-dasharray:none;stroke-opacity:1"
       id="path4591"
       cx="-39.827633"
       cy="173.92238"
       rx="8.7828331"
       ry="8.911993" />
    <ellipse
       ry="8.9694681"
       rx="8.8394756"
       cy="129.36412"
       cx="40.545567"
       id="ellipse4593"
       style="fill:#000000;fill-opacity:1;stroke:#e20f3a;stroke-width:5.70813417;stroke-miterlimit:4;stroke-dasharray:none;stroke-opacity:1" />
    <ellipse
       style="fill:#ffffff;fill-opacity:1;stroke:#e20f3a;stroke-width:0;stroke-miterlimit:4;stroke-dasharray:none;stroke-opacity:1"
       id="path4595"
       cx="-38.164379"
       cy="171.95125"
       rx="1.6587799"
       ry="1.5702072" />
    <ellipse
       ry="1.5702072"
       rx="1.6587799"
       cy="126.59411"
       cx="42.15556"
       id="ellipse4597"
       style="fill:#ffffff;fill-opacity:1;stroke:#e20f3a;stroke-width:0;stroke-miterlimit:4;stroke-dasharray:none;stroke-opacity:1" />
    <circle
       style="fill:#fc9797;fill-opacity:1;stroke:none;stroke-width:0;stroke-miterlimit:4;stroke-dasharray:none;stroke-opacity:1"
       r="64.679222"
       cy="353.9808"
       cx="33.322937"
       id="circle4599" />
    <g
       transform="translate(-78.042698,155.81813)"
       id="g4607">
      <circle
         style="fill:#fc9797;fill-opacity:1;stroke:none;stroke-width:0;stroke-miterlimit:4;stroke-dasharray:none;stroke-opacity:1"
         cy="168.09485"
         cx="144.37344"
         id="circle4601"
         r="30.067818" />
      <g
         id="g4605"
         transform="translate(0.53453906,-0.26726953)">
        <circle
           style="fill:#fcffff;fill-opacity:1;stroke:none;stroke-width:0;stroke-miterlimit:4;stroke-dasharray:none;stroke-opacity:1"
           cy="168.36214"
           cx="144.37346"
           id="circle4603"
           r="24.455158" />
      </g>
    </g>
    <g
       id="g4615"
       transform="translate(-157.74831,187.08867)">
      <circle
         r="30.067818"
         id="circle4609"
         cx="144.37344"
         cy="168.09485"
         style="fill:#fc9797;fill-opacity:1;stroke:none;stroke-width:0;stroke-miterlimit:4;stroke-dasharray:none;stroke-opacity:1" />
      <g
         transform="translate(0.53453906,-0.26726953)"
         id="g4613">
        <circle
           r="24.455158"
           id="circle4611"
           cx="144.37346"
           cy="168.36214"
           style="fill:#fcffff;fill-opacity:1;stroke:none;stroke-width:0;stroke-miterlimit:4;stroke-dasharray:none;stroke-opacity:1" />
      </g>
    </g>
    <ellipse
       ry="8.911993"
       rx="8.7828331"
       cy="361.32419"
       cx="-12.566141"
       id="ellipse4619"
       style="fill:#000000;fill-opacity:1;stroke:#e20f3a;stroke-width:5.67155743;stroke-miterlimit:4;stroke-dasharray:none;stroke-opacity:1" />
    <ellipse
       style="fill:#000000;fill-opacity:1;stroke:#e20f3a;stroke-width:5.70813417;stroke-miterlimit:4;stroke-dasharray:none;stroke-opacity:1"
       id="ellipse4621"
       cx="67.80706"
       cy="317.52188"
       rx="8.8394756"
       ry="8.9694681" />
    <ellipse
       ry="1.5938307"
       rx="1.5997211"
       cy="360.13263"
       cx="-10.961946"
       id="ellipse4623"
       style="fill:#ffffff;fill-opacity:1;stroke:#e20f3a;stroke-width:0;stroke-miterlimit:4;stroke-dasharray:none;stroke-opacity:1" />
    <ellipse
       style="fill:#ffffff;fill-opacity:1;stroke:#e20f3a;stroke-width:0;stroke-miterlimit:4;stroke-dasharray:none;stroke-opacity:1"
       id="ellipse4625"
       cx="69.369804"
       cy="314.82272"
       rx="1.6115328"
       ry="1.6410778" />
    <g
       transform="matrix(0.98000001,0,0,0.98000001,-128.46798,140.13708)"
       id="g4633">
      <circle
         style="fill:#fc9797;fill-opacity:1;stroke:none;stroke-width:0;stroke-miterlimit:4;stroke-dasharray:none;stroke-opacity:1"
         cy="168.09485"
         cx="144.37344"
         id="circle4627"
         r="30.067818" />
      <g
         id="g4631"
         transform="translate(0.53453906,-0.26726953)">
        <circle
           style="fill:#fcffff;fill-opacity:1;stroke:none;stroke-width:0;stroke-miterlimit:4;stroke-dasharray:none;stroke-opacity:1"
           cy="168.36214"
           cx="144.37346"
           id="circle4629"
           r="24.455158" />
      </g>
    </g>
    <ellipse
       style="fill:#000000;fill-opacity:1;stroke:#e20f3a;stroke-width:5.67155743;stroke-miterlimit:4;stroke-dasharray:none;stroke-opacity:1"
       id="ellipse4635"
       cx="12.947251"
       cy="302.54889"
       rx="8.7828331"
       ry="8.911993" />
    <ellipse
       style="fill:#ffffff;fill-opacity:1;stroke:#e20f3a;stroke-width:0;stroke-miterlimit:4;stroke-dasharray:none;stroke-opacity:1"
       id="ellipse4637"
       cx="14.551447"
       cy="301.35733"
       rx="1.5997211"
       ry="1.5938307" />
    <circle
       id="circle4639"
       cx="244.23366"
       cy="283.29926"
       r="64.679222"
       style="fill:#fc9797;fill-opacity:1;stroke:none;stroke-width:0;stroke-miterlimit:4;stroke-dasharray:none;stroke-opacity:1" />
    <g
       id="g4647"
       transform="translate(132.86802,85.136582)">
      <circle
         r="30.067818"
         id="circle4641"
         cx="144.37344"
         cy="168.09485"
         style="fill:#fc9797;fill-opacity:1;stroke:none;stroke-width:0;stroke-miterlimit:4;stroke-dasharray:none;stroke-opacity:1" />
      <g
         transform="translate(0.53453906,-0.26726953)"
         id="g4645">
        <circle
           r="24.455158"
           id="circle4643"
           cx="144.37346"
           cy="168.36214"
           style="fill:#fcffff;fill-opacity:1;stroke:none;stroke-width:0;stroke-miterlimit:4;stroke-dasharray:none;stroke-opacity:1" />
      </g>
    </g>
    <g
       transform="translate(53.162404,116.40712)"
       id="g4655">
      <circle
         style="fill:#fc9797;fill-opacity:1;stroke:none;stroke-width:0;stroke-miterlimit:4;stroke-dasharray:none;stroke-opacity:1"
         cy="168.09485"
         cx="144.37344"
         id="circle4649"
         r="30.067818" />
      <g
         id="g4653"
         transform="translate(0.53453906,-0.26726953)">
        <circle
           style="fill:#fcffff;fill-opacity:1;stroke:none;stroke-width:0;stroke-miterlimit:4;stroke-dasharray:none;stroke-opacity:1"
           cy="168.36214"
           cx="144.37346"
           id="circle4651"
           r="24.455158" />
      </g>
    </g>
    <ellipse
       style="fill:#000000;fill-opacity:1;stroke:#e20f3a;stroke-width:5.67155743;stroke-miterlimit:4;stroke-dasharray:none;stroke-opacity:1"
       id="ellipse4657"
       cx="198.34457"
       cy="290.64264"
       rx="8.7828331"
       ry="8.911993" />
    <ellipse
       ry="8.9694681"
       rx="8.8394756"
       cy="246.84033"
       cx="278.71777"
       id="ellipse4659"
       style="fill:#000000;fill-opacity:1;stroke:#e20f3a;stroke-width:5.70813417;stroke-miterlimit:4;stroke-dasharray:none;stroke-opacity:1" />
    <ellipse
       style="fill:#ffffff;fill-opacity:1;stroke:#e20f3a;stroke-width:0;stroke-miterlimit:4;stroke-dasharray:none;stroke-opacity:1"
       id="ellipse4661"
       cx="199.94878"
       cy="289.45108"
       rx="1.5997211"
       ry="1.5938307" />
    <ellipse
       ry="1.6410778"
       rx="1.6115328"
       cy="244.14117"
       cx="280.28052"
       id="ellipse4663"
       style="fill:#ffffff;fill-opacity:1;stroke:#e20f3a;stroke-width:0;stroke-miterlimit:4;stroke-dasharray:none;stroke-opacity:1" />
    <g
       id="g4671"
       transform="matrix(0.98000001,0,0,0.98000001,82.442734,69.455532)">
      <circle
         r="30.067818"
         id="circle4665"
         cx="144.37344"
         cy="168.09485"
         style="fill:#fc9797;fill-opacity:1;stroke:none;stroke-width:0;stroke-miterlimit:4;stroke-dasharray:none;stroke-opacity:1" />
      <g
         transform="translate(0.53453906,-0.26726953)"
         id="g4669">
        <circle
           r="24.455158"
           id="circle4667"
           cx="144.37346"
           cy="168.36214"
           style="fill:#fcffff;fill-opacity:1;stroke:none;stroke-width:0;stroke-miterlimit:4;stroke-dasharray:none;stroke-opacity:1" />
      </g>
    </g>
    <ellipse
       ry="8.911993"
       rx="8.7828331"
       cy="231.86734"
       cx="223.85797"
       id="ellipse4673"
       style="fill:#000000;fill-opacity:1;stroke:#e20f3a;stroke-width:5.67155743;stroke-miterlimit:4;stroke-dasharray:none;stroke-opacity:1" />
    <ellipse
       ry="1.5938307"
       rx="1.5997211"
       cy="230.67578"
       cx="225.46216"
       id="ellipse4675"
       style="fill:#ffffff;fill-opacity:1;stroke:#e20f3a;stroke-width:0;stroke-miterlimit:4;stroke-dasharray:none;stroke-opacity:1" />
    <path
       style="fill:#000000;fill-opacity:1;stroke:#000046;stroke-width:0;stroke-miterlimit:4;stroke-dasharray:none;stroke-opacity:1"
       d="m -10.195667,194.77485 c 0,0 15.057393,6.22077 30.836563,-4.03969 7.958623,-5.17513 11.649348,1.29994 20.244787,-16.49865 1.969846,-4.07896 -0.779565,22.33565 -3.750263,27.28109 -8.331952,13.87053 -42.9994992,14.60197 -47.331087,-6.74275 z"
       id="path4685"
       inkscape:connector-curvature="0"
       sodipodi:nodetypes="sssss" />
    <path
       style="fill:#000000;fill-opacity:1;stroke:#000046;stroke-width:0;stroke-miterlimit:4;stroke-dasharray:none;stroke-opacity:1"
       d="m -47.606624,130.62654 c 3.864661,5.98536 -8.510428,1.99646 -17.500869,7.80131 -8.990413,5.80498 -11.191631,19.20572 -15.056286,13.22035 -3.864649,-5.98533 0.290591,-15.54328 9.281005,-21.34826 8.990412,-5.80498 19.411501,-5.65875 23.27615,0.3266 z"
       id="path4693"
       inkscape:connector-curvature="0"
       sodipodi:nodetypes="sssss" />
    <path
       sodipodi:nodetypes="sssss"
       inkscape:connector-curvature="0"
       id="path4696"
       d="m 71.46021,112.07917 c -2.607155,6.63045 -6.58589,-5.74798 -16.545266,-9.66411 -9.959379,-3.916124 -22.12798,2.113 -19.520819,-4.517434 2.607152,-6.63043 12.794339,-8.83083 22.753717,-4.9147 9.959377,3.91613 15.919526,12.465814 13.312368,19.096244 z"
       style="fill:#000000;fill-opacity:1;stroke:#000046;stroke-width:0;stroke-miterlimit:4;stroke-dasharray:none;stroke-opacity:1" />
    <path
       style="fill:#ffffff;fill-opacity:1;stroke:none;stroke-width:0.27302417px;stroke-linecap:butt;stroke-linejoin:miter;stroke-opacity:1"
       d="m 5.1511396,196.39875 c 2.3279002,-0.22978 6.4625274,-1.28863 7.9679724,-1.89438 -0.230929,3.01139 -0.1735,5.8992 -0.7964,9.07857 -3.7692048,-2.98559 -4.7810484,-4.78946 -7.1715724,-7.18419 z"
       id="path4698"
       inkscape:connector-curvature="0"
       sodipodi:nodetypes="cccc" />
    <circle
       style="fill:#fc9797;fill-opacity:1;stroke:none;stroke-width:0;stroke-miterlimit:4;stroke-dasharray:none;stroke-opacity:1"
       r="64.679222"
       cy="368.41827"
       cx="-171.58736"
       id="circle4700" />
    <g
       transform="translate(-282.953,170.25563)"
       id="g4708">
      <circle
         style="fill:#fc9797;fill-opacity:1;stroke:none;stroke-width:0;stroke-miterlimit:4;stroke-dasharray:none;stroke-opacity:1"
         cy="168.09485"
         cx="144.37344"
         id="circle4702"
         r="30.067818" />
      <g
         id="g4706"
         transform="translate(0.53453906,-0.26726953)">
        <circle
           style="fill:#fcffff;fill-opacity:1;stroke:none;stroke-width:0;stroke-miterlimit:4;stroke-dasharray:none;stroke-opacity:1"
           cy="168.36214"
           cx="144.37346"
           id="circle4704"
           r="24.455158" />
      </g>
    </g>
    <g
       id="g4716"
       transform="translate(-364.73748,201.52616)">
      <circle
         r="30.067818"
         id="circle4710"
         cx="144.37344"
         cy="168.09485"
         style="fill:#fc9797;fill-opacity:1;stroke:none;stroke-width:0;stroke-miterlimit:4;stroke-dasharray:none;stroke-opacity:1" />
      <g
         transform="translate(0.53453906,-0.26726953)"
         id="g4714">
        <circle
           r="24.455158"
           id="circle4712"
           cx="144.37346"
           cy="168.36214"
           style="fill:#fcffff;fill-opacity:1;stroke:none;stroke-width:0;stroke-miterlimit:4;stroke-dasharray:none;stroke-opacity:1" />
      </g>
    </g>
    <ellipse
       ry="8.911993"
       rx="8.7828331"
       cy="376.51761"
       cx="-217.47644"
       id="ellipse4718"
       style="fill:#000000;fill-opacity:1;stroke:#e20f3a;stroke-width:5.67155743;stroke-miterlimit:4;stroke-dasharray:none;stroke-opacity:1" />
    <ellipse
       style="fill:#000000;fill-opacity:1;stroke:#e20f3a;stroke-width:5.70813417;stroke-miterlimit:4;stroke-dasharray:none;stroke-opacity:1"
       id="ellipse4720"
       cx="-137.10324"
       cy="331.95935"
       rx="8.8394756"
       ry="8.9694681" />
    <ellipse
       ry="1.5702072"
       rx="1.6587799"
       cy="374.54648"
       cx="-215.81319"
       id="ellipse4722"
       style="fill:#ffffff;fill-opacity:1;stroke:#e20f3a;stroke-width:0;stroke-miterlimit:4;stroke-dasharray:none;stroke-opacity:1" />
    <ellipse
       style="fill:#ffffff;fill-opacity:1;stroke:#e20f3a;stroke-width:0;stroke-miterlimit:4;stroke-dasharray:none;stroke-opacity:1"
       id="ellipse4724"
       cx="-135.49326"
       cy="329.18936"
       rx="1.6587799"
       ry="1.5702072" />
    <path
       sodipodi:nodetypes="sssss"
       inkscape:connector-curvature="0"
       id="path4726"
       d="m -187.84448,397.37009 c 0,0 15.0574,6.22077 30.83657,-4.03969 7.95862,-5.17513 11.64934,1.29994 20.24478,-16.49865 1.96985,-4.07896 1.41873,24.20654 -2.62773,27.23432 -12.95537,9.69388 -44.12203,14.64874 -48.45362,-6.69598 z"
       style="fill:#000000;fill-opacity:1;stroke:#000046;stroke-width:0;stroke-miterlimit:4;stroke-dasharray:none;stroke-opacity:1" />
    <path
       sodipodi:nodetypes="sssss"
       inkscape:connector-curvature="0"
       id="path4728"
       d="m -225.25543,333.22178 c 3.86466,5.98536 -8.51043,1.99646 -17.50087,7.80131 -8.99042,5.80498 -11.19163,19.20572 -15.05629,13.22035 -3.86465,-5.98533 0.29059,-15.54328 9.28101,-21.34826 8.99041,-5.80498 19.4115,-5.65875 23.27615,0.3266 z"
       style="fill:#000000;fill-opacity:1;stroke:#000046;stroke-width:0;stroke-miterlimit:4;stroke-dasharray:none;stroke-opacity:1" />
    <path
       style="fill:#000000;fill-opacity:1;stroke:#000046;stroke-width:0;stroke-miterlimit:4;stroke-dasharray:none;stroke-opacity:1"
       d="m -106.1886,314.67441 c -2.60715,6.63045 -6.58589,-5.74798 -16.54527,-9.66411 -9.95937,-3.91613 -22.12798,2.113 -19.52081,-4.51744 2.60715,-6.63043 12.79433,-8.83083 22.75371,-4.9147 9.95938,3.91613 15.91953,12.46582 13.31237,19.09625 z"
       id="path4730"
       inkscape:connector-curvature="0"
       sodipodi:nodetypes="sssss" />
    <path
       sodipodi:nodetypes="cccc"
       inkscape:connector-curvature="0"
       id="path4732"
       d="m -172.50387,399.00846 c 2.3279,-0.22978 6.46253,-1.28863 7.96797,-1.89438 -0.23093,3.01139 -0.1735,5.8992 -0.7964,9.07857 -3.7692,-2.98559 -4.78105,-4.78946 -7.17157,-7.18419 z"
       style="fill:#ffffff;fill-opacity:1;stroke:none;stroke-width:0.27302417px;stroke-linecap:butt;stroke-linejoin:miter;stroke-opacity:1" />
    <path
       style="fill:#fff2e8;fill-opacity:1;stroke:#000000;stroke-width:0;stroke-linecap:butt;stroke-linejoin:miter;stroke-miterlimit:4;stroke-dasharray:none;stroke-opacity:1"
       d="m 355.71998,-9.7604995 c 7.57542,17.646412 7.69878,57.8031525 77.25054,100.8480225 25.53169,7.483496 83.35045,-1.477339 118.19126,-56.20904 26.09494,-41.7427434 11.57795,-101.915529 6.7274,-143.373023 l -186.90865,16.6376 -12.17083,-2.116666 c 1.20432,28.471396 -0.61478,55.892382 -3.08972,84.2131065 z"
       id="path4734"
       inkscape:connector-curvature="0"
       sodipodi:nodetypes="ccccccc" />
    <path
       style="fill:#de7676;fill-opacity:1;stroke:#000000;stroke-width:0;stroke-linecap:butt;stroke-linejoin:miter;stroke-miterlimit:4;stroke-dasharray:none;stroke-opacity:1"
       d="m 290.44346,-30.728627 c 0.34762,-39.545116 -6.7214,-87.927673 43.04987,-141.460613 58.04139,-49.22779 130.70618,-59.55792 194.69116,-44.39681 57.80155,18.25336 85.30616,50.18844 107.05578,83.60375 84.1145,133.54334785 -5.40483,242.8838 33.3109,344.1289 -189.9181,-77.32817 -77.41466,-193.345424 -119.76836,-315.90943 -31.00946,0.44524 -62.60453,20.32442 -93.17884,27.038172 -30.5743,6.713753 -62.24679,14.490885 -96.79427,-16.248948 1.40332,116.082648 33.42392,165.472579 66.15103,179.11238 39.24618,16.356776 83.82009,-9.922944 77.16848,-4.49918 C 452.6548,158.59794 311.9925,100.04177 289.22947,202.69473 c -20.96844,-49.23299 24.57308,-83.09652 1.21399,-233.423357 z"
       id="path4736"
       inkscape:connector-curvature="0"
       sodipodi:nodetypes="ccccccscsccc" />
    <path
       style="fill:#ffffff;fill-opacity:1;stroke:none;stroke-width:3.63048434;stroke-miterlimit:4;stroke-dasharray:none;stroke-opacity:1"
       d="m 524.96634,-31.016715 c -2.06152,8.806261 2.86091,26.626217 -9.85297,27.6059819 -22.48075,1.7324254 -30.33216,-10.1920109 -30.52628,-30.1316789 -0.17492,-17.96778 -1.67572,-24.047225 19.11387,-25.64155 15.4314,-1.183413 24.55516,14.114192 21.26538,28.167247 z"
       id="path5523"
       inkscape:connector-curvature="0"
       sodipodi:nodetypes="sssss" />
    <path
       sodipodi:nodetypes="ccccc"
       inkscape:connector-curvature="0"
       id="path4833"
       d="m 484.41961,-48.692496 c -1.16868,14.661621 -0.85828,28.41948 1.48866,42.3172717 3.65081,-1.130385 6.10008,-0.562209 8.20201,-0.403124 -0.0902,-5.2992177 5.27265,-14.9557517 -1.46781,-40.7271227 -3.34956,-4.350153 -7.14909,-2.716483 -8.22286,-1.187025 z"
       style="fill:#000000;fill-opacity:1;stroke:#000000;stroke-width:0.26499999;stroke-linecap:butt;stroke-linejoin:miter;stroke-miterlimit:4;stroke-dasharray:none;stroke-opacity:1" />
    <path
       style="fill:#000000;fill-opacity:1;stroke:none;stroke-width:2.26499987;stroke-miterlimit:4;stroke-dasharray:none;stroke-opacity:1"
       d="m 529.18579,-36.564898 c 1.57627,11.777502 -17.8593,62.540446 -7.76419,30.9164003 4.09008,-12.8125973 11.22319,-73.7342603 -44.5271,-43.0303923 -10.40839,5.732311 13.24304,-13.071699 27.50204,-13.096206 14.70465,-0.02527 23.15079,12.968009 24.78925,25.210198 z"
       id="path4837"
       inkscape:connector-curvature="0"
       sodipodi:nodetypes="sssss" />
    <path
       sodipodi:nodetypes="sssss"
       inkscape:connector-curvature="0"
       id="path5530"
       d="M 413.84134,-28.129425 C 411.6596,-19.70755 414.9422,-2.77222 401.27558,-0.43814667 375.79369,3.9138126 374.88417,-28.449326 381.92876,-43.217207 c 6.76046,-14.172234 0.1131,-1.134867 11.04407,-7.199287 14.09511,-7.819858 24.87517,6.820727 20.86851,22.287069 z"
       style="fill:#ffffff;fill-opacity:1;stroke:none;stroke-width:3.55279326;stroke-miterlimit:4;stroke-dasharray:none;stroke-opacity:1" />
    <path
       style="fill:#000000;fill-opacity:1;stroke:#000000;stroke-width:0.24061134;stroke-linecap:butt;stroke-linejoin:miter;stroke-miterlimit:4;stroke-dasharray:none;stroke-opacity:1"
       d="m 414.80312,-41.107583 c -0.8226,12.251151 -0.31308,26.252521 3.21052,39.5152872 -4.55038,-0.8415591 -7.26022,0.086134 -8.91771,0.3274176 -0.29546,-1.4178621 -5.11445,-14.2859678 -2.46127,-38.7128198 1.89735,-4.228072 6.02816,-1.975843 8.16846,-1.129885 z"
       id="path5526"
       inkscape:connector-curvature="0"
       sodipodi:nodetypes="ccccc" />
    <path
       sodipodi:nodetypes="sssss"
       inkscape:connector-curvature="0"
       id="path5528"
       d="m 376.04687,-28.816679 c 0.28486,11.350647 15.0183,51.429237 9.03231,21.730118 -1.92057,-9.528773 -17.20832,-55.167811 28.6106,-38.244601 10.57308,3.905165 -1.23218,-6.161449 -11.69513,-7.596155 -15.27083,-2.093975 -26.32326,9.14913 -25.94778,24.110638 z"
       style="fill:#000000;fill-opacity:1;stroke:none;stroke-width:2.15951085;stroke-miterlimit:4;stroke-dasharray:none;stroke-opacity:1" />
    <path
       style="fill:#000000;fill-opacity:1;stroke:none;stroke-width:1.13990366;stroke-miterlimit:4;stroke-dasharray:none;stroke-opacity:1"
       d="m 490.68376,51.424079 c -0.15566,-0.06226 -10.12276,-5.508298 -13.5634,-5.707605 -1.88229,-0.109037 -15.40361,-1.320419 -18.52617,0.623774 -21.37541,13.308899 10.52504,5.344601 18.47957,9.424186 5.70833,2.927594 21.13286,-1.331209 13.61,-4.340355 z"
       id="path5532"
       inkscape:connector-curvature="0"
       sodipodi:nodetypes="sssss" />
    <path
       style="fill:#f3f3f3;fill-opacity:1;stroke:#000000;stroke-width:0;stroke-linecap:butt;stroke-linejoin:miter;stroke-miterlimit:4;stroke-dasharray:none;stroke-opacity:1"
       d="m 480.50611,46.61289 0.76753,7.053042 4.33255,-4.812108 c -0.92207,-0.59073 -4.21243,-1.916917 -5.10008,-2.240934 z"
       id="path5535"
       inkscape:connector-curvature="0"
       sodipodi:nodetypes="cccc" />
  </g>
</svg>
